<svg xmlns="http://www.w3.org/2000/svg" xmlns:xlink="http://www.w3.org/1999/xlink" width="242" height="110.773" viewBox="0 0 242 110.773"><defs><style>.a{fill:#726554;}.b{clip-path:url(#a);}</style><clipPath id="a"><rect class="a" width="242" height="110.773"/></clipPath></defs><g class="b"><path class="a" d="M169.369,66.057a.628.628,0,0,1-.346.61,4.789,4.789,0,0,1-2,.372,6.358,6.358,0,0,1-4.585-1.876,7.131,7.131,0,0,1-1.858-4.852,5.008,5.008,0,0,1,5.486-5.606c2.258,0,3.678.752,4.116,1.418a2.716,2.716,0,0,1,.366,1.16c.016.153.034.262.124.262.118,0,.16-.086.16-.37a22.9,22.9,0,0,1,.118-2.486c0-.068-.038-.136-.21-.16a9.013,9.013,0,0,1-1.42-.172,14.8,14.8,0,0,0-2.678-.3,8.58,8.58,0,0,0-4.66,1.1,6.63,6.63,0,0,0-2.924,5.764,6.827,6.827,0,0,0,2.081,4.989A9.539,9.539,0,0,0,170.611,67c.217-.124.23-.16.23-.946V64.095c0-.734,0-1.258.034-1.824.036-.61.178-.908.65-1a2.7,2.7,0,0,1,.438-.05c.075,0,.144-.034.144-.1,0-.11-.092-.144-.285-.144-.524,0-1.63.052-1.711.052s-1.2-.052-1.984-.052c-.192,0-.278.036-.278.144,0,.068.074.1.142.1a3.491,3.491,0,0,1,.594.05c.7.194.786.39.786,1.808v2.978Zm-19.511-4.31c-.05,0-.092-.034-.05-.118l1.538-4.734c.086-.262.178-.262.268,0l1.66,4.734c.016.068.016.118-.07.118Zm-2.452,3.872c-.32.878-.662,1.538-1.47,1.648-.136.018-.39.034-.508.034-.086,0-.16.036-.16.1,0,.11.109.142.337.142.82,0,1.784-.05,1.973-.05s.946.05,1.37.05c.16,0,.262-.034.262-.142,0-.068-.05-.1-.171-.1h-.178c-.3,0-.666-.16-.666-.506a3.678,3.678,0,0,1,.251-1.174l1.048-3.1a.183.183,0,0,1,.172-.136h3.77a.15.15,0,0,1,.153.1l1.632,4.31c.1.278,0,.438-.1.474-.068.018-.126.05-.126.118,0,.109.194.109.526.126,1.208.034,2.486.034,2.748.034.192,0,.352-.034.352-.142,0-.086-.068-.1-.171-.1a2.312,2.312,0,0,1-.709-.1c-.364-.109-.871-.388-1.5-1.944-1.068-2.662-3.822-9.9-4.082-10.566-.2-.542-.273-.628-.382-.628s-.178.1-.382.679ZM134.794,55.058l2.212.036c1.677.034,2.1.438,2.149.962l.018.194c.023.246.057.3.142.3.068,0,.12-.074.12-.228,0-.194.056-1.4.056-1.926,0-.11,0-.212-.092-.212-.068,0-.228.052-.49.086a6.475,6.475,0,0,1-1.242.092H131.1c-.21,0-.876-.034-1.38-.092a3.387,3.387,0,0,1-.775-.2c-.068,0-.136.223-.171.332-.036.136-.39,1.648-.39,1.818,0,.109.036.16.086.16.074,0,.118-.034.178-.178a2.953,2.953,0,0,1,.3-.542c.285-.42.7-.542,1.79-.558l2.589-.036v7.407c0,1.684,0,3.068-.086,3.8-.074.506-.16.889-.506.962a2.691,2.691,0,0,1-.524.068c-.109,0-.144.052-.144.1,0,.11.086.142.28.142.524,0,1.63-.05,1.714-.05s1.192.05,2.156.05c.194,0,.278-.05.278-.142,0-.05-.034-.1-.136-.1a7.6,7.6,0,0,1-.786-.068c-.53-.074-.634-.456-.684-.962-.092-.736-.092-2.122-.092-3.8V55.058Zm-14.95,6.689c-.045,0-.081-.034-.045-.118l1.538-4.734c.086-.262.172-.262.262,0l1.666,4.734c.016.068.016.118-.07.118Zm-2.452,3.872c-.307.878-.661,1.538-1.47,1.648-.136.018-.382.034-.5.034-.092,0-.16.036-.16.1,0,.11.1.142.332.142.82,0,1.79-.05,1.984-.05s.944.05,1.362.05c.154,0,.262-.034.262-.142,0-.068-.05-.1-.176-.1h-.172c-.3,0-.666-.16-.666-.506a3.644,3.644,0,0,1,.244-1.174l1.05-3.1a.188.188,0,0,1,.178-.136h3.77a.15.15,0,0,1,.153.1l1.632,4.31c.1.278,0,.438-.109.474-.068.018-.12.05-.12.118,0,.109.188.109.526.126,1.208.034,2.486.034,2.754.034.187,0,.341-.034.341-.142,0-.086-.068-.1-.172-.1a2.321,2.321,0,0,1-.7-.1c-.37-.109-.871-.388-1.5-1.944-1.068-2.662-3.815-9.9-4.082-10.566-.212-.542-.28-.628-.382-.628s-.178.1-.388.679Zm-8.861-6.238c0-2.73,0-3.222.034-3.78.036-.616.178-.912.686-1a3.94,3.94,0,0,1,.582-.05.123.123,0,0,0,.136-.109c0-.1-.086-.136-.28-.136-.524,0-1.808.05-1.894.05s-1.19-.05-1.978-.05c-.194,0-.28.034-.28.136,0,.068.068.109.144.109a3.338,3.338,0,0,1,.592.05c.582.118.718.4.752,1,.036.56.036,1.05.036,3.78v3.084c0,1.684,0,3.068-.086,3.8-.074.506-.16.889-.506.962a2.71,2.71,0,0,1-.526.068c-.109,0-.142.052-.142.1,0,.109.086.142.278.142.262,0,.65-.018,1.005-.034.341,0,.643-.018.711-.018.508,0,1.056.018,1.786.05s1.653.05,2.906.05c.935,0,.982-.068,1.106-.472a11.582,11.582,0,0,0,.262-1.752c0-.2-.018-.262-.1-.262-.1,0-.142.086-.16.228a2.4,2.4,0,0,1-.456,1.05c-.422.506-1.187.524-2.122.524-1.362,0-1.818-.118-2.1-.4-.32-.321-.388-1.438-.388-4.014V59.381ZM90.787,60.42c0-3.838,2.19-5.766,5.109-5.766,2.772,0,5.326,2.258,5.326,6.468,0,5.1-3.255,6-4.834,6-3.147,0-5.6-2.632-5.6-6.706m-1.675.488c0,3.154,2.007,6.882,6.807,6.882a6.872,6.872,0,0,0,6.987-7.161c0-4.082-2.944-6.568-6.882-6.568a6.786,6.786,0,0,0-6.911,6.846m-6.547,6.882a10.1,10.1,0,0,0,3.147-.406c.32-.136.354-.171.458-.506a17.989,17.989,0,0,0,.388-2.242c0-.142-.036-.262-.126-.262s-.136.068-.171.262a3.43,3.43,0,0,1-.65,1.472,4.036,4.036,0,0,1-3.044.876,6.328,6.328,0,0,1-6.328-6.414A5.838,5.838,0,0,1,77.819,56c.61-.6,1.7-1.283,4.03-1.283a5.845,5.845,0,0,1,3.5,1,2.437,2.437,0,0,1,.736,1.792c0,.246.018.364.142.364.1,0,.136-.1.154-.364s.018-1.228.05-1.808c.036-.628.092-.838.092-.982,0-.1-.034-.171-.228-.192a14.826,14.826,0,0,1-1.79-.262,15.249,15.249,0,0,0-2.536-.2,7.08,7.08,0,0,0-5.344,1.87,6.989,6.989,0,0,0-1.962,4.784A6.7,6.7,0,0,0,76.785,65.9a8.069,8.069,0,0,0,5.78,1.892m-22.8-7.371c0-3.838,2.19-5.766,5.116-5.766,2.764,0,5.326,2.258,5.326,6.468,0,5.1-3.262,6-4.836,6-3.154,0-5.606-2.632-5.606-6.706m-1.666.488c0,3.154,2,6.882,6.8,6.882a6.872,6.872,0,0,0,6.987-7.161c0-4.082-2.942-6.568-6.877-6.568A6.782,6.782,0,0,0,58.1,60.908m-4.122-1.528c0-2.73,0-3.222.034-3.78.036-.616.178-.912.65-1a2.4,2.4,0,0,1,.433-.05c.075,0,.144-.039.144-.109,0-.1-.086-.136-.28-.136-.524,0-1.63.05-1.716.05s-1.19-.05-1.978-.05c-.194,0-.285.034-.285.136,0,.068.074.109.142.109a3.4,3.4,0,0,1,.6.05c.574.118.718.4.752,1,.036.56.036,1.05.036,3.78v.37a.094.094,0,0,1-.1.1h-7.43a.1.1,0,0,1-.11-.1v-.37c0-2.73,0-3.222.036-3.78.039-.616.183-.912.65-1a2.506,2.506,0,0,1,.438-.05c.074,0,.142-.039.142-.109,0-.1-.092-.136-.284-.136-.524,0-1.625.05-1.711.05s-1.2-.05-1.984-.05c-.194,0-.278.034-.278.136,0,.068.074.109.142.109a3.28,3.28,0,0,1,.592.05c.582.118.718.4.754,1,.034.56.034,1.05.034,3.78v3.084c0,1.684,0,3.068-.086,3.8-.068.506-.153.889-.506.962a2.623,2.623,0,0,1-.524.068c-.1,0-.136.052-.136.1,0,.109.079.142.273.142.524,0,1.63-.05,1.721-.05s1.187.05,2.154.05c.188,0,.275-.05.275-.142,0-.05-.036-.1-.138-.1a7.608,7.608,0,0,1-.786-.068c-.526-.074-.634-.456-.686-.962-.092-.736-.092-2.122-.092-3.8V60.63a.1.1,0,0,1,.11-.11H52.4a.106.106,0,0,1,.1.11v1.835c0,1.684,0,3.068-.092,3.8-.068.506-.154.889-.5.962a2.674,2.674,0,0,1-.524.068c-.11,0-.147.052-.147.1,0,.109.092.142.284.142.526,0,1.63-.05,1.716-.05s1.192.05,2.156.05c.187,0,.278-.05.278-.142,0-.05-.034-.1-.136-.1a7.826,7.826,0,0,1-.792-.068c-.524-.074-.634-.456-.679-.962-.092-.736-.092-2.122-.092-3.8Zm-19.089,8.41a10.11,10.11,0,0,0,3.149-.406c.32-.136.352-.171.456-.506a17.655,17.655,0,0,0,.388-2.242c0-.142-.034-.262-.124-.262s-.138.068-.172.262a3.43,3.43,0,0,1-.65,1.472,4.034,4.034,0,0,1-3.044.876,6.328,6.328,0,0,1-6.328-6.414A5.838,5.838,0,0,1,30.142,56c.61-.6,1.7-1.283,4.032-1.283a5.849,5.849,0,0,1,3.5,1,2.436,2.436,0,0,1,.734,1.792c0,.246.018.364.144.364.1,0,.136-.1.153-.364s.018-1.228.052-1.808c.034-.628.092-.838.092-.982,0-.1-.036-.171-.23-.192a14.929,14.929,0,0,1-1.79-.262,15.249,15.249,0,0,0-2.536-.2,7.086,7.086,0,0,0-5.344,1.87,6.989,6.989,0,0,0-1.962,4.784A6.7,6.7,0,0,0,29.108,65.9a8.072,8.072,0,0,0,5.78,1.892" transform="translate(21.456 42.983)"/></g><g class="b"><path class="a" d="M102.415,17.145a12.463,12.463,0,0,1-5.2.9,55.427,55.427,0,0,1-9.579-1.4q-7.125-1.454-9.545-1.79a33.864,33.864,0,0,0-5.622-.542q1.371-.6,3.039-1.226c1.111-.422,2.161-.777,3.165-1.09s2.179-.637,3.547-1.02c1.233.187,2.475.388,3.705.582s2.572.415,4,.655,2.565.433,3.38.587c1.09.165,2.583.37,4.511.6s3.421.411,4.527.537,2.073.258,2.937.377a5.883,5.883,0,0,1-2.869,2.833M90.844,7.053c-2.617.736-4.538,1.221-5.775,1.472-1.2-.178-2.413-.343-3.639-.513s-2.423-.348-3.592-.513-2.418-.354-3.746-.542c-.8-.136-1.625-.239-2.492-.32s-1.994-.172-3.393-.3-2.73-.235-3.974-.327a10.009,10.009,0,0,1,3.716-2.919,12.716,12.716,0,0,1,5.087-.872,28.175,28.175,0,0,1,5.838.486c3.877.775,6.5,1.323,7.846,1.625a47.716,47.716,0,0,0,9.1,1h.82c-1.251.416-3.188.991-5.8,1.721m10.144,4.192q-2.857-.471-4.344-.729c-1.1-.172-3.912-.673-8.41-1.506,2.56-.634,5.159-1.375,7.771-2.224A57.309,57.309,0,0,0,102.059,4.5a11.915,11.915,0,0,0,2.492-1.494,4.341,4.341,0,0,0,1.187-1.58L104,.429q-.684,2.73-4.789,2.736a18.444,18.444,0,0,1-3.1-.228q-3.148-.452-7.931-1.454A64.56,64.56,0,0,0,76.425,0a29.3,29.3,0,0,0-4.4.309A14.662,14.662,0,0,0,68.338,1.37,13.833,13.833,0,0,0,65.283,3.2,16.352,16.352,0,0,0,62.661,5.9c-.82-.018-1.574-.029-2.271-.039s-1.47-.011-2.35-.011a42.091,42.091,0,0,0-7,.469,15.126,15.126,0,0,0-4.658,1.58,4.679,4.679,0,0,0-2.822,4.2,3.832,3.832,0,0,0,.828,2.538,4.141,4.141,0,0,0,2.395,1.339,10.288,10.288,0,0,0,1.709-1.438,7.59,7.59,0,0,0,1.147-1.84,5.754,5.754,0,0,1-2.086.456,2.561,2.561,0,0,1-1.666-.5,1.587,1.587,0,0,1-.616-1.294,2.285,2.285,0,0,1,.718-1.587,4.714,4.714,0,0,1,1.9-1.185,24.3,24.3,0,0,1,6.7-.623q3.285,0,6.961.167a10.851,10.851,0,0,0-.178,1.4,4.523,4.523,0,0,0,2.63,4.213,9.624,9.624,0,0,0,1.732-.878,6.231,6.231,0,0,0,1.174-1.226,4.233,4.233,0,0,1-2.874-.9A3.121,3.121,0,0,1,63,8.239a158.8,158.8,0,0,1,16.364,2.332,80.444,80.444,0,0,0-8.952,2.937,28.1,28.1,0,0,0-3.836,1.87,6.785,6.785,0,0,0-1.98,1.87,5,5,0,0,0,.377,1.323,5.374,5.374,0,0,0,.912,1.129,4.934,4.934,0,0,1,1.174-2.766,3.4,3.4,0,0,1,2.5-.856,54.819,54.819,0,0,1,8.7,1.456c5.041,1.043,8.638,1.732,10.815,2.068a41,41,0,0,0,6.173.5,15.7,15.7,0,0,0,8.866-2.457,6.366,6.366,0,0,0,2.508-3.1,60.774,60.774,0,0,0,6.671.485,37.557,37.557,0,0,0,8.439-.831,13.935,13.935,0,0,0,5.52-2.344A4.476,4.476,0,0,0,129.171,8.3a2.845,2.845,0,0,0-.718-2.023,5.435,5.435,0,0,0-2.337-1.289,10.315,10.315,0,0,0-2.795,2.364c.537-.066.9-.108,1.111-.108a2.926,2.926,0,0,1,1.842.569A1.814,1.814,0,0,1,127,9.291q0,1.761-2.612,2.782a20.758,20.758,0,0,1-7.2,1.011,65.838,65.838,0,0,1-9.128-.741l-1.1-.2c-.285-3.062-1.619-4.863-4.025-5.418a5.386,5.386,0,0,0-1.221,1.483,5.194,5.194,0,0,0-.456,1.8,3.435,3.435,0,0,1,1.63-.542q2.071,0,2.845,2.623c-1.255-.242-2.834-.53-4.75-.842" transform="translate(34.633 0)"/></g><g class="b"><path class="a" d="M218.3,58.613c7.76-11.266,15.235-22.361,22.71-33.805a1.431,1.431,0,0,0,.285-.871c0-.3-.285-.411-1.05-.411H225.889c-1.641,0-4.08.057-8.986-.118a17.932,17.932,0,0,1-2.167-.346c-.284,0-.4.233-.467.935-.285,1.511-1.05,6.01-1.05,6.592,0,.411.057.644.3.644.285,0,.582-.12.7-.878a5.7,5.7,0,0,1,2.921-3.913c1.635-.878,4.674-.815,7.3-.815h10.857C228.221,36.664,220.638,47.7,212.93,58.852c-.644.935-.7,1.283-.7,1.511,0,.352.354.411.935.411,8.992,0,17.687.233,26.268.233,1.169,0,1.226-.056,1.517-1.276A27.864,27.864,0,0,0,242,54.007c0-.935-.118-1.106-.411-1.106s-.468.291-.582.759a7.989,7.989,0,0,1-1.055,2.685c-1.167,1.4-2.571,2.274-8,2.274H218.3ZM185.142,46.526a101.814,101.814,0,0,1-.291,10.747c-.241,1.459-.354,2.452-1.346,2.623a13.631,13.631,0,0,1-1.573.235.4.4,0,0,0-.411.411c0,.284.291.406.822.406.81,0,1.984-.063,2.976-.12,1.1-.056,2.091-.056,2.212-.056.758,0,2.1,0,4.258.113,2.1.063,5.086.178,8.94.178,1.98,0,2.5,0,2.858-1.278A41.406,41.406,0,0,0,204.282,55c0-.346-.056-.759-.346-.759s-.406.178-.524.759c-.291,1.984-.993,2.863-2.332,3.445a16.983,16.983,0,0,1-5.143.53c-5.075,0-6.01-.643-6.13-3.974-.056-.993,0-6.773,0-8.467V42.376a.305.305,0,0,1,.348-.346c.876,0,6.364.056,7.776.233,1.984.233,2.452.815,2.623,1.517a4.39,4.39,0,0,1,.235,1.637c0,.291.118.467.346.467.346,0,.469-.524.469-.935,0-.346.113-2.217.228-3.21A27.065,27.065,0,0,1,202.242,39c0-.3-.113-.411-.291-.411s-.411.291-.759.639c-.524.53-1.276.587-2.508.7-1.161.118-7.941.118-8.586.118-.291,0-.291-.178-.291-.524V26.03c0-.346.057-.524.291-.524.582,0,6.545.056,7.425.178,2.8.346,3.328.7,3.671,1.517a5.394,5.394,0,0,1,.291,1.757c0,.411.12.643.406.643.241,0,.411-.291.469-.524.118-.587.241-2.806.3-3.272a23.532,23.532,0,0,1,.411-2.332c0-.235-.061-.469-.239-.469a3.118,3.118,0,0,0-.7.233c-.411.057-1.339.235-2.332.291-1.169.057-11.918,0-12.264,0-.3,0-3.617-.118-5.953-.118-.582,0-.815.118-.815.411a.5.5,0,0,0,.406.411,15.59,15.59,0,0,1,1.756.11c1.687.235,1.984,1.056,2.1,2.748.12,1.58.12,2.982.12,10.684v8.753Zm-34.805-20.5a.635.635,0,0,1,.406-.582,22.365,22.365,0,0,1,3.684-.289c5.493,0,8.879,3.556,8.879,9.756,0,3.791-1.341,6.419-3.1,7.59a6.693,6.693,0,0,1-3.852.878,17.341,17.341,0,0,1-5.667-.765.72.72,0,0,1-.348-.639V26.028Zm-4.43,20.493a100.04,100.04,0,0,1-.3,10.753c-.228,1.459-.348,2.389-1.339,2.623a7.184,7.184,0,0,1-1.58.235.4.4,0,0,0-.411.411c0,.284.3.406.82.406,1.574,0,5.017-.172,5.073-.172.235,0,3.5.172,6.308.172.582,0,.815-.178.815-.406a.364.364,0,0,0-.406-.411,17.889,17.889,0,0,1-2.282-.235c-1.574-.233-1.87-1.161-2.041-2.623-.235-2.048-.235-5.9-.235-10.69V45.415c0-.291.113-.411.348-.411l6.54.118a.785.785,0,0,1,.7.291c1.122,1.341,3.4,4.563,5.556,7.249,2.913,3.734,4.779,6.128,7,7.3,1.283.7,2.567.987,5.486.987h3.217c.93,0,1.221-.12,1.221-.406a.451.451,0,0,0-.469-.411,9.582,9.582,0,0,1-1.808-.172c-1.284-.178-2.976-.644-5.719-3.445-2.982-3.1-6.545-7.593-10.742-12.846,4.784-4.087,6.3-7.651,6.3-11.329a8.734,8.734,0,0,0-3.552-6.78c-2.693-1.858-6.308-2.154-9.586-2.154-1.574,0-5.9.113-6.419.113-.291,0-3.734-.113-6.067-.113-.587,0-.815.118-.815.411a.49.49,0,0,0,.406.411,15.418,15.418,0,0,1,1.752.109c1.7.235,1.982,1.056,2.1,2.748.118,1.58.118,2.982.118,10.684v8.753Zm-33.281-1.454c-.178,0-.233-.113-.178-.346l4.779-13.605c.3-.758.587-.758.878,0l5.08,13.605c.061.233.061.346-.178.346Zm-7.417,10.4c-.993,2.513-1.984,4.265-4.323,4.556a14.9,14.9,0,0,1-1.517.113.457.457,0,0,0-.469.411c0,.284.354.406.993.406,2.1,0,4.674-.172,5.2-.172.582,0,3.387.172,4.613.172.461,0,.758-.12.758-.406,0-.235-.113-.411-.524-.411h-.469c-.876,0-1.756-.348-1.756-1.341a10.269,10.269,0,0,1,.763-3.328l2.921-7.943a.535.535,0,0,1,.524-.411h11.849c.291,0,.346.056.467.291l4.606,11.392a.925.925,0,0,1-.467,1.341c-.228.118-.348.118-.348.352,0,.285.815.285,1.808.341,3.563.12,7.363.12,8.119.12.582,0,1.163-.12,1.163-.406s-.348-.411-.639-.411a7.132,7.132,0,0,1-2.041-.291c-1.111-.348-2.508-.993-4.378-5.428-3.159-7.538-11.386-28.023-12.321-30.127-.524-1.111-.7-1.808-1.226-1.808-.354,0-.582.291-1.221,1.926ZM76.895,29.473a20.588,20.588,0,0,1-1.4-4.147.815.815,0,0,1,.582-.871,6.249,6.249,0,0,1,1.87-.235.47.47,0,0,0,.524-.461c0-.235-.469-.354-1.4-.354-1.984,0-4.26.113-4.784.113-.643,0-3.563-.113-6.015-.113-.815,0-1.346.063-1.346.354a.441.441,0,0,0,.411.461,10.03,10.03,0,0,1,1.984.172c1.7.411,2.395.935,3.563,3.739l12.605,30.42c.993,2.395,1.346,3.032,1.928,3.032.524,0,.82-.759,2.217-3.734,1.169-2.452,3.443-7.823,6.6-15.066,2.63-6.073,5.143-12.024,5.725-13.425,1.339-3.387,2.154-4.087,2.863-4.556a4.764,4.764,0,0,1,2.45-.582c.406,0,.582-.228.582-.461s-.3-.354-.82-.354c-1.519,0-3.736.113-4.026.113-.637,0-2.976-.113-5.017-.113-.82,0-1.174.118-1.174.411,0,.228.3.406.587.406a6.025,6.025,0,0,1,1.75.172,1.046,1.046,0,0,1,.7,1.054,8.583,8.583,0,0,1-.467,1.865c-1.111,3.563-7.823,20.5-10.806,27.153Zm-25.232,8.3c0-7.708,0-9.11.063-10.684.113-1.757.406-2.513,1.926-2.806.582-.057,1.339-.113,1.687-.113.178,0,.411-.178.411-.348,0-.291-.291-.411-.82-.411-1.574,0-5.428.113-5.656.113-.291,0-3.5-.113-5.838-.113-.582,0-.815.118-.815.411a.5.5,0,0,0,.406.406,17.456,17.456,0,0,1,1.756.113c1.693.235,1.984,1.056,2.1,2.748C47,28.658,47,30.06,47,37.768v8.758a102.453,102.453,0,0,1-.289,10.747c-.235,1.459-.354,2.389-1.346,2.623a7.121,7.121,0,0,1-1.574.235.4.4,0,0,0-.411.411c0,.284.3.406.822.406.815,0,1.926-.063,2.974-.12.993-.056,1.87-.056,2.1-.056,1.519,0,3.267.056,5.6.113,2.395.118,5.258.178,8.936.178,2.741,0,2.919-.178,3.267-1.334a31.207,31.207,0,0,0,.763-4.967c0-.526-.118-.759-.352-.759-.291,0-.469.291-.524.644a6,6,0,0,1-1.228,2.8c-1.226,1.459-3.506,1.522-6.186,1.522-4.03,0-6.015-.354-6.83-1.169-.935-.878-1.056-3.852-1.056-11.153v-8.88Zm-37.943,7.3c-.172,0-.235-.113-.172-.346l4.784-13.605c.291-.758.587-.758.878,0l5.068,13.605c.063.233.063.346-.171.346Zm-7.414,10.4c-.993,2.513-1.984,4.265-4.321,4.556a15.169,15.169,0,0,1-1.517.113A.452.452,0,0,0,0,60.543c0,.284.346.406.993.406,2.1,0,4.671-.172,5.195-.172.587,0,3.387.172,4.612.172.469,0,.765-.12.765-.406,0-.235-.118-.411-.53-.411h-.469c-.872,0-1.752-.348-1.752-1.341a10.205,10.205,0,0,1,.759-3.328l2.919-7.943a.541.541,0,0,1,.531-.411H24.866c.291,0,.348.056.469.291l4.612,11.392a.929.929,0,0,1-.467,1.341c-.235.118-.354.118-.354.352,0,.285.82.285,1.813.341,3.558.12,7.356.12,8.119.12.582,0,1.161-.12,1.161-.406s-.352-.411-.637-.411a7.177,7.177,0,0,1-2.048-.291c-1.111-.348-2.508-.993-4.378-5.428C30,46.871,21.782,26.386,20.846,24.282c-.524-1.111-.707-1.808-1.231-1.808-.348,0-.582.291-1.221,1.926Z" transform="translate(0 17.869)"/></g></svg>