<?xml version="1.0" standalone="no"?>
<!DOCTYPE svg PUBLIC "-//W3C//DTD SVG 1.1//EN" "http://www.w3.org/Graphics/SVG/1.1/DTD/svg11.dtd">
<svg xmlns="http://www.w3.org/2000/svg">
<defs >
<font id="NotoSansDisplay" horiz-adv-x="548" ><font-face
    font-family="Noto Sans Display ExtraLight"
    units-per-em="1000"
    panose-1="2 11 5 2 4 5 4 2 2 4"
    ascent="1069"
    descent="-293"
    alphabetic="0" />
<glyph unicode=" " horiz-adv-x="244" />
<glyph unicode="!" horiz-adv-x="220" d="M127 179H94L88 714H133L127 179ZM77 29Q77 46 84 57T109 68Q127 68 134 57T142 29Q142 12 135 2T109 -9Q92 -9 85 1T77 29Z" />
<glyph unicode="&quot;" horiz-adv-x="321" d="M108 714L101 456H74L67 714H108ZM254 714L247 456H220L213 714H254Z" />
<glyph unicode="#" horiz-adv-x="607" d="M441 457L405 256H545V223H400L359 0H325L366 223H192L151 0H117L157 223H25V256H163L200 457H62V489H205L246 714H280L240 489H414L454 714H488L448 489H581V457H441ZM198 256H372L408 457H233L198 256Z" />
<glyph unicode="$" horiz-adv-x="537" d="M238 18Q180 19 136 28T62 48V88Q94 75 140 65T238 53V348Q199 363 167 378T110 414T73 463T59 530Q59 608 110 650T238 697V759H269V698Q310 697 349 688T425 661L411 627Q374 645 338 653T269 662V375Q324 355 365 333T429
278T452 193Q452 111 402 68T269 19V-58H238V18ZM269 55Q333 59 372 92T412 192Q412 231 396 256T347 300T269 336V55ZM238 662Q178 659 139 627T99 533Q99 491 117 464T167 420T238 387V662Z" />
<glyph unicode="%" horiz-adv-x="755" d="M185 724Q251 724 283 667T316 501Q316 389 282 333T183 276Q141 276 112 302T68 378T53 501Q53 611 87 667T185 724ZM185 691Q139 691 114 644T89 501Q89 406 113 358T183 309Q232 309 256 358T280 501Q280 594 257 642T185
691ZM583 714L211 0H173L545 714H583ZM571 438Q615 438 644 413T687 338T702 215Q702 103 668 47T570 -10Q528 -10 499 16T454 92T439 215Q439 325 473 381T571 438ZM571 405Q525 405 501 358T476 215Q476 120 500 72T570 23Q617 23 641 72T666 215Q666 308 644
356T571 405Z" />
<glyph unicode="&amp;" horiz-adv-x="667" d="M286 725Q353 725 395 686T437 579Q437 511 395 468T283 387L499 153Q526 188 547 234T579 334H619Q606 272 582 221T525 126L642 0H589L499 101Q477 77 453 57T401 21T339 -2T264 -10Q203 -10 156 12T83 76T57 180Q57
235 76 272T133 338T222 395Q193 428 171 455T138 511T126 575Q126 644 170 684T286 725ZM247 370Q199 345 166 320T115 263T98 181Q98 107 144 67T264 26Q338 26 386 53T474 125L247 370ZM286 690Q230 690 198 659T166 575Q166 531 189 495T256 412Q324 445 360
483T397 579Q397 631 367 660T286 690Z" />
<glyph unicode="&apos;" horiz-adv-x="173" d="M108 714L101 456H74L67 714H108Z" />
<glyph unicode="(" horiz-adv-x="251" d="M39 274Q39 362 54 441T100 590T175 714H219Q172 654 141 584T95 436T79 275Q79 193 94 117T141 -28T219 -158H175Q131 -101 101 -34T55 111T39 274Z" />
<glyph unicode=")" horiz-adv-x="251" d="M213 280Q213 194 197 114T151 -34T76 -158H33Q80 -98 111 -28T157 119T173 280Q173 404 138 514T33 714H76Q120 657 150 590T197 445T213 280Z" />
<glyph unicode="*" horiz-adv-x="518" d="M278 758L269 555L451 621L460 581L278 533L394 371L358 347L256 518L157 348L120 371L235 533L53 581L63 621L244 555L236 758H278Z" />
<glyph unicode="+" horiz-adv-x="536" d="M285 370H485V336H285V121H250V336H50V370H250V585H285V370Z" />
<glyph unicode="," horiz-adv-x="218" d="M146 104Q138 68 128 27T106 -54T80 -129H48Q61 -82 70 -41T87 40T99 116H142L146 104Z" />
<glyph unicode="-" horiz-adv-x="303" d="M38 253V289H265V253H38Z" />
<glyph unicode="." horiz-adv-x="218" d="M77 29Q77 46 84 57T108 68Q127 68 134 57T142 29Q142 12 135 2T108 -9Q92 -9 85 1T77 29Z" />
<glyph unicode="/" horiz-adv-x="315" d="M303 714L52 0H11L263 714H303Z" />
<glyph unicode="0" horiz-adv-x="537" d="M481 360Q481 268 469 199T430 83T364 14T268 -10Q198 -10 151 30T79 153T55 360Q55 468 75 550T142 678T269 725Q349 725 395 680T461 552T481 360ZM95 360Q95 246 114 172T171 62T268 25Q330 25 368 61T423 172T441
360Q441 461 426 535T374 649T269 690Q203 690 165 649T111 533T95 360Z" />
<glyph unicode="1" horiz-adv-x="537" d="M309 0H270V550Q270 579 270 600T271 640T272 672Q260 661 249 651T220 627L115 542L92 570L275 714H309V0Z" />
<glyph unicode="2" horiz-adv-x="537" d="M469 0H53V33L255 260Q302 313 333 355T381 440T398 537Q398 609 360 649T253 689Q212 689 171 673T92 624L70 652Q98 677 128 692T190 716T255 724Q312 724 352 702T416 637T439 538Q439 494 428 457T397 385T349 317T286
243L105 39V36H469V0Z" />
<glyph unicode="3" horiz-adv-x="537" d="M447 550Q447 503 429 467T379 407T305 375V373Q384 362 426 318T468 196Q468 135 441 89T362 16T231 -10Q174 -10 128 1T44 31V70Q80 51 130 38T231 25Q330 25 378 71T427 196Q427 253 402 288T330 338T221 353H146V388H221Q272
388 314 405T382 459T407 549Q407 619 366 654T257 689Q222 689 190 682T129 659T71 621L50 650Q77 672 108 689T177 715T256 724Q346 724 396 679T447 550Z" />
<glyph unicode="4" horiz-adv-x="537" d="M525 188H405V0H367V188H22V217L364 718H405V223H525V188ZM367 512Q367 543 367 565T367 605T367 638T369 673H366Q352 648 341 629T311 583L67 223H367V512Z" />
<glyph unicode="5" horiz-adv-x="537" d="M258 428Q326 428 374 405T450 335T477 219Q477 148 448 97T365 18T237 -10Q182 -10 140 1T67 31V72Q99 52 143 39T237 25Q297 25 342 47T412 113T437 217Q437 300 391 346T251 393Q211 393 177 388T111 372L88 390L115
714H435V678H149L128 412Q150 416 182 422T258 428Z" />
<glyph unicode="6" horiz-adv-x="537" d="M60 303Q60 389 72 456T109 574T167 657T248 708T348 725Q374 725 397 722T438 713V676Q421 683 399 686T348 690Q293 690 248 670T171 606T120 495T99 330H101Q115 357 139 382T202 423T290 440Q352 440 395 414T461
339T484 225Q484 155 460 102T391 19T281 -11Q224 -11 183 13T114 81T74 181T60 303ZM281 24Q357 24 401 77T445 225Q445 309 406 357T285 406Q229 406 188 382T125 324T102 255Q102 224 110 185T140 109T195 48T281 24Z" />
<glyph unicode="7" horiz-adv-x="537" d="M160 0L438 678H51V714H483V687L204 0H160Z" />
<glyph unicode="8" horiz-adv-x="537" d="M267 724Q325 724 367 705T432 648T456 559Q456 516 437 484T385 426T307 381Q359 361 397 334T456 269T478 182Q478 121 450 79T374 13T265 -10Q201 -10 155 12T83 77T57 176Q57 229 77 267T135 333T223 380Q184 398
151 420T99 476T79 558Q79 609 103 646T170 703T267 724ZM97 176Q97 107 142 66T264 24Q316 24 355 42T416 95T438 182Q438 224 421 255T370 310T286 353L261 362Q214 344 177 320T119 262T97 176ZM267 690Q202 690 160 656T118 557Q118 515 137 486T190 436T269
398Q312 417 345 438T397 488T416 559Q416 624 377 657T267 690Z" />
<glyph unicode="9" horiz-adv-x="537" d="M474 411Q474 305 455 226T399 94T309 15T186 -11Q159 -11 133 -8T89 2V39Q106 32 132 28T186 24Q241 24 286 44T364 108T415 219T436 384H433Q420 357 395 332T333 291T244 274Q183 274 140 300T73 375T50 489Q50 560
74 612T144 695T255 725Q311 725 353 701T421 633T461 534T474 411ZM255 690Q178 690 134 637T89 489Q89 405 129 357T251 308Q307 308 348 332T410 391T432 459Q432 489 424 528T395 605T341 666T255 690Z" />
<glyph unicode=":" horiz-adv-x="218" d="M77 29Q77 46 84 57T108 68Q127 68 134 57T142 29Q142 12 135 2T108 -9Q92 -9 85 1T77 29ZM77 497Q77 514 84 525T108 536Q127 536 134 525T142 497Q142 479 135 469T108 459Q92 459 85 469T77 497Z" />
<glyph unicode=";" horiz-adv-x="218" d="M131 104Q124 68 114 27T91 -54T65 -129H34Q43 -95 51 -63T65 0T76 59T85 116H127L131 104ZM76 497Q76 514 83 525T108 536Q127 536 134 525T142 497Q142 479 135 469T108 459Q91 459 84 469T76 497Z" />
<glyph unicode="&lt;" horiz-adv-x="535" d="M484 134L51 347V371L484 590V554L97 360L484 170V134Z" />
<glyph unicode="=" horiz-adv-x="536" d="M52 438V471H484V438H52ZM52 235V268H484V235H52Z" />
<glyph unicode="&gt;" horiz-adv-x="535" d="M51 170L438 360L51 554V590L484 371V347L51 134V170Z" />
<glyph unicode="?" horiz-adv-x="393" d="M136 195Q136 242 142 273T166 328T214 376Q249 404 273 428T309 481T322 553Q322 622 283 655T181 688Q144 688 111 680T44 653L30 688Q71 706 105 715T182 724Q264 724 312 681T360 553Q360 504 345 470T303 408T239
352Q213 332 198 311T176 263T169 193V179H136V195ZM122 29Q122 46 129 57T154 68Q172 68 180 57T188 29Q188 12 180 2T154 -9Q137 -9 130 1T122 29Z" />
<glyph unicode="@" horiz-adv-x="830" d="M780 352Q780 302 771 258T743 180T696 127T630 107Q587 107 561 134T531 209H529Q510 157 472 132T387 107Q317 107 280 154T242 286Q242 351 267 401T337 480T442 509Q478 509 510 504T569 488L561 331Q560 313 559
292T558 248Q558 195 575 168T631 140Q669 140 694 167T732 243T745 352Q745 450 709 522T606 634T442 674Q362 674 297 648T184 572T112 449T86 284Q86 175 122 97T228 -22T394 -64Q442 -64 492 -53T586 -23V-59Q546 -77 498 -87T394 -98Q287 -98 210 -52T92 80T50
283Q50 383 78 462T158 596T282 679T442 708Q545 708 621 665T738 542T780 352ZM280 286Q280 215 307 178T390 140Q453 140 486 184T524 317L532 462Q513 469 491 472T442 476Q392 476 356 452T300 386T280 286Z" />
<glyph unicode="A" horiz-adv-x="557" d="M515 0L422 261H137L42 0H0L264 716H302L557 0H515ZM312 578Q309 590 304 604T293 636T282 670Q275 646 267 622T250 578L150 297H409L312 578Z" />
<glyph unicode="B" horiz-adv-x="586" d="M278 714Q362 714 414 696T490 639T515 541Q515 501 501 467T457 409T384 377V375Q436 366 469 344T517 286T533 203Q533 132 503 87T419 21T295 0H96V714H278ZM289 392Q385 392 429 429T474 538Q474 613 428 645T278
678H135V392H289ZM135 357V35H298Q391 35 441 76T491 204Q491 261 468 294T399 342T288 357H135Z" />
<glyph unicode="C" horiz-adv-x="581" d="M380 688Q313 688 261 664T173 596T119 492T100 359Q100 259 130 184T219 68T366 26Q418 26 460 35T537 56V21Q504 7 462 -1T363 -10Q263 -10 195 36T93 165T59 360Q59 438 80 504T143 620T244 696T381 724Q428 724 470
715T552 686L536 651Q498 672 459 680T380 688Z" />
<glyph unicode="D" horiz-adv-x="660" d="M601 364Q601 244 562 163T445 41T251 0H96V714H272Q381 714 454 674T564 556T601 364ZM558 363Q558 466 527 536T431 642T262 678H135V36H251Q406 36 482 117T558 363Z" />
<glyph unicode="E" horiz-adv-x="519" d="M461 0H96V714H461V678H135V394H443V358H135V36H461V0Z" />
<glyph unicode="F" horiz-adv-x="469" d="M135 0H96V714H461V678H135V360H444V324H135V0Z" />
<glyph unicode="G" horiz-adv-x="678" d="M354 355H604V34Q556 12 502 1T388 -10Q281 -10 208 33T97 157T59 355Q59 463 100 546T217 677T400 726Q454 726 503 715T596 682L579 646Q535 670 490 680T399 690Q306 690 239 647T136 529T100 356Q100 243 135 170T236
61T395 26Q429 26 459 29T515 40T564 57V319H354V355Z" />
<glyph unicode="H" horiz-adv-x="673" d="M577 0H537V357H135V0H96V714H135V393H537V714H577V0Z" />
<glyph unicode="I" horiz-adv-x="279" d="M227 0H52V27L120 33V680L52 688V714H227V688L160 680V33L227 27V0Z" />
<glyph unicode="J" horiz-adv-x="228" d="M-14 -177Q-39 -177 -57 -173T-87 -165V-127Q-74 -133 -55 -136T-15 -140Q25 -140 49 -123T85 -73T96 5V714H137V4Q137 -49 122 -90T73 -154T-14 -177Z" />
<glyph unicode="K" horiz-adv-x="540" d="M540 0H491L227 386L135 290V0H96V714H135V332Q150 349 166 366T198 401L481 714H533L256 414L540 0Z" />
<glyph unicode="L" horiz-adv-x="481" d="M96 0V714H135V36H461V0H96Z" />
<glyph unicode="M" horiz-adv-x="803" d="M384 0L134 668H132Q133 651 133 634T134 600T134 563V0H96V714H156L400 64H403L648 714H708V0H668V569Q668 584 668 600T669 633T670 667H668L416 0H384Z" />
<glyph unicode="N" horiz-adv-x="671" d="M575 0H537L134 642H132Q132 621 132 602T133 562T134 523T134 481V0H96V714H134L537 74H539Q539 91 539 110T538 151T537 192T537 231V714H575V0Z" />
<glyph unicode="O" horiz-adv-x="715" d="M656 358Q656 277 637 210T581 93T487 17T357 -10Q283 -10 227 17T133 93T78 210T59 359Q59 467 93 549T195 678T361 725Q456 725 521 681T621 555T656 358ZM100 359Q100 261 128 186T213 69T358 26Q446 26 502 67T586
184T613 358Q613 515 549 602T361 689Q273 689 215 647T129 531T100 359Z" />
<glyph unicode="P" horiz-adv-x="546" d="M258 714Q375 714 434 667T494 516Q494 443 465 395T381 323T245 300H135V0H96V714H258ZM254 678H135V335H240Q306 335 353 351T427 406T453 514Q453 601 405 639T254 678Z" />
<glyph unicode="Q" horiz-adv-x="715" d="M656 358Q656 265 631 189T557 64T432 -2L573 -170H517L388 -8Q381 -9 373 -9T357 -10Q283 -10 227 17T133 93T78 210T59 359Q59 467 93 549T195 678T361 725Q456 725 521 681T621 555T656 358ZM100 359Q100 261 128 186T213
69T358 26Q446 26 502 67T586 184T613 358Q613 515 549 602T361 689Q273 689 215 647T129 531T100 359Z" />
<glyph unicode="R" horiz-adv-x="554" d="M254 714Q333 714 387 697T467 637T494 522Q494 468 476 429T425 365T348 326L532 0H484L308 315H135V0H96V714H254ZM249 678H135V350H275Q330 350 369 370T431 428T453 521Q453 581 431 615T363 664T249 678Z" />
<glyph unicode="S" horiz-adv-x="511" d="M463 182Q463 118 433 75T350 11T234 -10Q192 -10 159 -6T100 5T51 20V61Q89 46 134 36T236 26Q288 26 330 42T397 93T422 181Q422 228 402 257T341 307T242 348Q188 367 147 390T83 449T59 544Q59 603 87 643T164 703T273
724Q320 724 362 715T446 686L432 652Q390 672 350 680T271 688Q223 688 184 673T123 626T100 545Q100 495 121 465T181 416T268 379Q328 360 371 336T439 277T463 182Z" />
<glyph unicode="T" horiz-adv-x="486" d="M262 0H223V678H4V714H482V678H262V0Z" />
<glyph unicode="U" horiz-adv-x="674" d="M586 252Q586 166 556 108T469 20T335 -10Q217 -10 153 58T88 254V714H128V255Q128 142 182 84T337 26Q403 26 449 51T521 125T547 246V714H586V252Z" />
<glyph unicode="V" horiz-adv-x="539" d="M539 714L289 0H249L0 714H42L232 166Q240 145 246 125T259 86T270 50Q274 67 279 84T292 122T307 166L496 714H539Z" />
<glyph unicode="W" horiz-adv-x="831" d="M807 714L622 0H583L438 559Q434 574 431 588T424 614T417 638T412 662Q410 650 408 640T404 619T399 599T393 576L247 0H208L26 714H68L198 192Q204 167 209 145T219 104T228 63Q232 84 236 104T246 146T259 194L393
714H433L572 191Q579 164 584 142T594 101T602 60Q606 81 610 100T619 142T631 191L766 714H807Z" />
<glyph unicode="X" horiz-adv-x="496" d="M498 0H452L249 342L43 0H-2L224 370L19 714H65L250 399L437 714H481L274 371L498 0Z" />
<glyph unicode="Y" horiz-adv-x="489" d="M245 314L445 714H489L266 275V0H226V271L0 714H44L245 314Z" />
<glyph unicode="Z" horiz-adv-x="543" d="M505 0H34V28L442 678H57V714H494V686L86 36H505V0Z" />
<glyph unicode="[" horiz-adv-x="298" d="M274 -158H80V714H274V679H118V-123H274V-158Z" />
<glyph unicode="\" horiz-adv-x="315" d="M52 714L303 0H263L11 714H52Z" />
<glyph unicode="]" horiz-adv-x="298" d="M24 -123H180V679H24V714H217V-158H24V-123Z" />
<glyph unicode="^" horiz-adv-x="536" d="M41 276L258 719H286L495 276H456L271 674L80 276H41Z" />
<glyph unicode="_" horiz-adv-x="379" d="M381 -124H-2V-91H381V-124Z" />
<glyph unicode="`" horiz-adv-x="247" d="M86 766Q99 745 120 717T164 661T207 613V606H178Q160 622 141 641T102 682T67 722T40 758V766H86Z" />
<glyph unicode="a" horiz-adv-x="493" d="M254 539Q335 539 375 495T415 353V0H384L377 98H375Q360 68 337 43T281 4T197 -10Q149 -10 115 7T63 57T45 133Q45 212 106 252T282 299L375 305V345Q375 431 345 467T253 504Q215 504 180 495T106 464L92 498Q130 516
170 527T254 539ZM286 268Q191 263 139 231T86 133Q86 81 116 53T202 24Q288 24 331 77T375 219V272L286 268Z" />
<glyph unicode="b" horiz-adv-x="555" d="M121 535Q121 509 121 475T119 418H121Q138 471 184 505T299 540Q396 540 448 471T501 266Q501 187 478 125T407 26T288 -10Q222 -10 182 20T123 97H120L113 0H82V760H121V535ZM295 505Q235 505 197 477T140 395T121 265V256Q121
143 160 84T284 25Q370 25 415 88T460 267Q460 385 419 445T295 505Z" />
<glyph unicode="c" horiz-adv-x="445" d="M284 -10Q207 -10 156 24T80 119T54 262Q54 346 84 408T168 505T297 540Q332 540 362 534T417 515L407 480Q380 493 352 498T296 504Q233 504 188 474T119 390T95 262Q95 195 115 141T176 56T283 25Q319 25 352 32T412
52V17Q388 6 356 -2T284 -10Z" />
<glyph unicode="d" horiz-adv-x="555" d="M263 -10Q160 -10 107 58T54 257Q54 394 110 467T270 540Q314 540 346 525T400 483T433 425H437Q436 455 435 485T433 544V760H473V0H441L435 105H433Q421 74 399 48T344 6T263 -10ZM267 25Q357 25 395 86T434 260V266Q434
382 395 443T273 505Q187 505 141 442T95 256Q95 141 137 83T267 25Z" />
<glyph unicode="e" horiz-adv-x="513" d="M271 540Q335 540 376 508T437 420T458 294V263H95Q95 148 143 87T283 25Q329 25 362 32T438 61V23Q401 6 365 -2T282 -10Q205 -10 155 24T79 119T54 260Q54 338 78 401T151 502T271 540ZM271 505Q197 505 151 452T96
297H417Q417 359 402 406T354 479T271 505Z" />
<glyph unicode="f" horiz-adv-x="274" d="M260 496H145V0H106V496H12V522L106 530V596Q106 652 121 689T167 746T248 765Q273 765 293 761T330 752L322 717Q306 724 287 727T248 730Q193 730 169 699T145 597V530H260V496Z" />
<glyph unicode="g" horiz-adv-x="555" d="M269 540Q333 540 370 513T430 443H433L439 530H471V-22Q471 -87 450 -136T383 -213T260 -240Q203 -240 161 -230T84 -204V-163Q107 -175 134 -184T194 -199T261 -205Q352 -205 392 -156T432 -23V15Q432 40 433 61T435
108H432Q413 50 369 20T259 -10Q163 -10 109 58T54 258Q54 345 78 408T151 506T269 540ZM272 505Q212 505 173 476T115 391T95 258Q95 144 138 85T263 25Q313 25 346 43T398 92T425 164T433 246V289Q433 354 418 402T367 478T272 505Z" />
<glyph unicode="h" horiz-adv-x="549" d="M122 504Q122 483 122 465T120 426H122Q134 457 157 482T215 523T298 539Q353 539 391 519T450 456T471 347V0H431V345Q431 428 396 466T295 505Q241 505 202 483T143 414T122 297V0H83V760H122V504Z" />
<glyph unicode="i" horiz-adv-x="206" d="M122 530V0H83V530H122ZM103 724Q121 724 127 714T134 688Q134 672 128 662T103 652Q87 652 80 662T73 688Q73 704 80 714T103 724Z" />
<glyph unicode="j" horiz-adv-x="207" d="M13 -240Q-6 -240 -21 -237T-48 -230V-194Q-34 -201 -20 -203T11 -205Q47 -205 65 -181T84 -109V530H123V-112Q123 -154 110 -183T71 -226T13 -240ZM74 688Q74 704 81 714T103 724Q121 724 128 714T135 688Q135 672 128
662T103 652Q88 652 81 662T74 688Z" />
<glyph unicode="k" horiz-adv-x="446" d="M122 381Q122 339 122 300T120 218V218Q130 230 139 241T157 263T176 286L382 530H429L234 302L447 0H401L207 276L122 177V0H83V760H122V381Z" />
<glyph unicode="l" horiz-adv-x="206" d="M123 0H84V760H123V0Z" />
<glyph unicode="m" horiz-adv-x="820" d="M591 540Q660 540 701 496T743 359V0H704V357Q704 434 671 469T587 505Q517 505 475 461T433 319V0H393V357Q393 409 378 441T337 489T276 505Q231 505 196 485T142 424T122 315V0H83V530H115L121 438H123Q134 464 154
487T205 525T280 540Q333 540 370 513T421 434H424Q443 483 485 511T591 540Z" />
<glyph unicode="n" horiz-adv-x="549" d="M299 540Q381 540 426 493T471 347V0H431V345Q431 428 396 466T295 505Q214 505 168 454T122 297V0H83V530H115L121 426H123Q135 457 158 482T216 524T299 540Z" />
<glyph unicode="o" horiz-adv-x="547" d="M492 265Q492 205 479 155T438 68T369 11T272 -10Q219 -10 179 10T111 67T69 154T54 265Q54 350 80 411T157 506T277 540Q351 540 398 504T469 406T492 265ZM95 265Q95 194 114 140T173 55T272 25Q334 25 373 55T432 140T452
265Q452 333 435 387T379 473T277 505Q188 505 142 442T95 265Z" />
<glyph unicode="p" horiz-adv-x="555" d="M300 540Q397 540 450 471T503 269Q503 180 478 118T405 23T293 -10Q246 -10 212 6T157 48T123 106H120Q122 76 122 45T123 -16V-234H84V530H114L121 414H123Q135 447 158 475T216 522T300 540ZM296 505Q239 505 200 477T142
397T123 269V263Q123 182 142 130T199 51T290 25Q345 25 383 53T441 135T461 269Q461 387 420 446T296 505Z" />
<glyph unicode="q" horiz-adv-x="556" d="M431 0Q431 23 432 55T435 112H431Q414 59 368 24T253 -11Q157 -11 105 59T53 263Q53 342 76 404T146 503T266 540Q331 540 372 508T431 432H433L439 530H471V-234H431V0ZM258 24Q319 24 357 52T414 133T432 262V273Q432
386 393 445T269 505Q183 505 138 442T93 263Q93 145 134 85T258 24Z" />
<glyph unicode="r" horiz-adv-x="362" d="M275 538Q295 538 313 536T347 528L340 492Q324 497 308 499T273 502Q236 502 208 488T161 446T133 381T123 295V0H84V530H118L122 429H124Q135 460 155 484T206 523T275 538Z" />
<glyph unicode="s" horiz-adv-x="435" d="M392 137Q392 91 370 58T306 8T202 -10Q150 -10 109 0T39 24V64Q75 46 117 35T202 24Q282 24 317 54T352 135Q352 170 334 192T284 229T208 258Q164 274 128 289T72 331T51 406Q51 470 99 505T227 540Q271 540 310 531T380
508L365 474Q348 483 325 490T276 501T226 505Q162 505 127 481T91 407Q91 370 108 350T157 317T229 290Q272 275 309 259T369 214T392 137Z" />
<glyph unicode="t" horiz-adv-x="311" d="M212 25Q234 25 252 28T286 37V4Q270 -2 252 -6T208 -10Q166 -10 139 7T99 59T86 143V496H11V522L86 531L98 659H125V530H283V496H125V146Q125 87 144 56T212 25Z" />
<glyph unicode="u" horiz-adv-x="549" d="M464 530V0H432L427 103H424Q412 73 389 47T332 6T249 -10Q192 -10 154 11T96 76T76 183V530H116V187Q116 104 151 65T252 25Q307 25 345 48T404 116T425 232V530H464Z" />
<glyph unicode="v" horiz-adv-x="423" d="M192 0L0 530H41L174 155Q182 133 188 114T200 79T210 45H213Q218 62 223 79T235 115T249 155L382 530H423L231 0H192Z" />
<glyph unicode="w" horiz-adv-x="668" d="M369 371Q361 400 354 424T340 474H338Q332 449 325 424T309 371L195 -1H157L14 529H56L147 175Q155 145 160 124T170 85T177 51H180Q183 67 187 84T197 122T212 172L322 529H360L464 173Q472 148 478 127T489 87T497
51H500Q502 75 509 103T526 175L614 529H654L520 -1H479L369 371Z" />
<glyph unicode="x" horiz-adv-x="463" d="M204 272L30 530H78L229 299L379 530H426L253 272L437 0H391L229 245L68 0H22L204 272Z" />
<glyph unicode="y" horiz-adv-x="422" d="M0 530H42L165 184Q177 153 185 128T200 83T211 47H213Q220 69 231 103T258 181L381 530H423L194 -107Q177 -151 158 -181T114 -227T54 -242Q38 -242 25 -240T-2 -233V-198Q12 -202 23 -205T50 -208Q75 -208 94 -197T129
-160T157 -96L193 4L0 530Z" />
<glyph unicode="z" horiz-adv-x="432" d="M392 0H38V25L342 496H61V530H392V504L87 34H392V0Z" />
<glyph unicode="{" horiz-adv-x="328" d="M294 -158Q242 -158 206 -144T152 -98T133 -18V148Q133 188 122 213T88 249T25 261V295Q64 295 87 306T122 343T133 408V574Q133 611 143 638T173 681T224 706T294 714V679Q252 679 225 669T185 635T172 568V404Q172 353
153 321T88 280V277Q133 268 152 236T172 152V-15Q172 -56 185 -79T225 -113T294 -123V-158Z" />
<glyph unicode="|" horiz-adv-x="507" d="M234 762H269V-249H234V762Z" />
<glyph unicode="}" horiz-adv-x="328" d="M33 -123Q76 -123 103 -113T143 -80T156 -14V152Q156 203 175 235T240 277V279Q194 288 175 320T156 404V568Q156 611 143 635T103 669T33 679V714Q74 714 104 706T154 682T185 638T195 574V408Q195 369 206 344T241 307T303
295V261Q265 261 241 250T206 214T195 148V-18Q195 -67 177 -98T122 -143T33 -158V-123Z" />
<glyph unicode="~" horiz-adv-x="535" d="M263 337Q235 352 213 360T160 368Q133 368 105 355T51 312V352Q72 375 101 388T161 401Q198 401 223 393T279 368Q307 355 329 347T377 338Q403 338 430 351T484 393V355Q466 333 438 319T376 305Q344 305 319 313T263 337Z" />
<glyph unicode="&#xa0;" horiz-adv-x="244" />
<glyph unicode="&#xa1;" horiz-adv-x="220" d="M92 349H126L131 -185H86L92 349ZM142 500Q142 482 135 472T110 461Q92 461 85 471T77 500Q77 517 84 527T110 538Q127 538 134 528T142 500Z" />
<glyph unicode="&#xa2;" horiz-adv-x="536" d="M321 639Q358 639 387 633T444 614L434 579Q407 593 379 598T323 604Q259 604 214 574T145 489T121 361Q121 293 141 240T203 156T310 125Q346 125 378 132T439 152V116Q417 106 387 99T321 89V-10H288V90Q218 95
172 130T104 224T81 361Q81 439 106 498T177 593T288 637V724H321V639Z" />
<glyph unicode="&#xa3;" horiz-adv-x="536" d="M321 723Q368 723 402 714T466 692L453 657Q422 671 392 679T322 688Q254 688 221 646T187 515V365H375V332H187V194Q187 149 177 118T151 67T114 36H491V0H37V33Q73 40 97 59T135 112T148 193V332H49V365H148V520Q148
587 168 632T228 700T321 723Z" />
<glyph unicode="&#xa4;" horiz-adv-x="537" d="M81 354Q81 389 92 422T124 483L54 559L77 581L146 506Q172 530 203 542T267 554Q300 554 331 542T389 506L459 580L481 558L411 483Q432 456 443 423T455 354Q455 319 444 286T411 224L482 149L459 126L389 202Q363
178 332 166T267 154Q235 154 204 166T146 202L77 127L54 149L124 224Q103 252 92 285T81 354ZM112 354Q112 306 133 268T189 208T267 185Q310 185 346 208T403 269T424 355Q424 401 403 439T347 500T268 523Q226 523 190 501T133 440T112 354Z" />
<glyph unicode="&#xa5;" horiz-adv-x="536" d="M269 342L471 714H515L299 326H447V293H288V188H447V155H288V0H249V155H90V188H249V293H90V326H236L21 714H65L269 342Z" />
<glyph unicode="&#xa6;" horiz-adv-x="507" d="M234 762H269V392H234V762ZM234 122H269V-249H234V122Z" />
<glyph unicode="&#xa7;" horiz-adv-x="486" d="M74 395Q74 444 101 475T169 522Q129 539 104 563T79 634Q79 693 124 726T248 760Q293 760 329 752T397 730L383 697Q356 711 321 719T247 727Q184 727 150 704T116 634Q116 603 133 586T180 556T249 530Q291 516
327 499T385 456T407 381Q407 349 397 323T367 278T325 245Q359 229 381 204T403 134Q403 72 356 35T218 -2Q168 -2 128 8T60 31V70Q83 58 109 50T162 36T219 31Q297 31 331 59T365 133Q365 165 348 184T300 218T226 247Q183 262 148 278T94 322T74 395ZM110 397Q110
361 126 340T173 305T243 277L291 260Q327 276 349 307T372 379Q372 413 354 436T300 475T209 507Q167 495 139 469T110 397Z" />
<glyph unicode="&#xa8;" horiz-adv-x="542" d="M155 679Q155 693 161 703T183 713Q198 713 204 703T211 679Q211 663 205 654T183 644Q168 644 162 653T155 679ZM330 679Q330 693 336 703T357 713Q373 713 379 703T385 679Q385 663 379 654T357 644Q343 644 337
653T330 679Z" />
<glyph unicode="&#xa9;" horiz-adv-x="782" d="M412 540Q341 540 298 491T254 356Q254 266 297 220T409 174Q439 174 463 179T515 195V163Q491 153 466 147T408 141Q320 141 269 195T217 356Q217 422 241 471T310 547T412 574Q450 574 477 567T530 547L515 516Q493
528 469 534T412 540ZM47 357Q47 435 74 501T148 617T258 694T391 722Q465 722 528 693T637 612T709 495T735 357Q735 282 708 216T634 99T524 21T391 -8Q317 -8 254 20T145 99T73 216T47 357ZM78 357Q78 289 101 229T165 122T264 49T391 22Q458 22 515 49T615
122T681 229T705 357Q705 425 682 485T616 592T516 665T391 692Q325 692 268 666T169 594T102 488T78 357Z" />
<glyph unicode="&#xaa;" horiz-adv-x="312" d="M161 722Q211 722 236 696T262 619V399H234L228 445Q216 424 192 410T133 395Q103 395 81 405T48 435T36 485Q36 518 52 539T101 571T184 585L229 587V617Q229 656 210 674T159 692Q135 692 114 686T69 666L57 695Q72
704 88 709T123 718T161 722ZM184 556Q125 554 98 538T70 485Q70 455 87 440T136 425Q183 425 206 452T229 526V558L184 556Z" />
<glyph unicode="&#xab;" horiz-adv-x="395" d="M28 282L175 472L201 455L71 276L201 97L175 81L28 269V282ZM194 282L341 472L367 455L238 276L367 97L341 81L194 269V282Z" />
<glyph unicode="&#xac;" horiz-adv-x="536" d="M473 370V131H439V336H50V370H473Z" />
<glyph unicode="&#xad;" horiz-adv-x="322" d="M38 253V289H265V253H38Z" />
<glyph unicode="&#xae;" horiz-adv-x="782" d="M386 351Q431 351 460 375T490 448Q490 496 462 517T387 538H310V351H386ZM525 448Q525 400 501 371T440 330L549 142H506L406 321H311V142H276V570H389Q452 570 488 541T525 448ZM47 357Q47 435 74 501T148 617T258
694T391 722Q465 722 528 693T637 612T709 495T735 357Q735 282 708 216T634 99T524 21T391 -8Q317 -8 254 20T145 99T73 216T47 357ZM78 357Q78 289 101 229T165 122T264 49T391 22Q458 22 515 49T615 122T681 229T705 357Q705 425 682 485T616 592T516 665T391
692Q325 692 268 666T169 594T102 488T78 357Z" />
<glyph unicode="&#xaf;" horiz-adv-x="470" d="M473 760H-3V793H473V760Z" />
<glyph unicode="&#xb0;" horiz-adv-x="402" d="M65 580Q65 622 83 654T133 705T201 724Q239 724 269 705T318 653T337 580Q337 539 319 506T270 455T201 436Q164 436 134 454T84 506T65 580ZM97 580Q97 534 126 501T200 468Q229 468 253 483T291 524T305 580Q305
628 275 660T200 692Q156 692 127 660T97 580Z" />
<glyph unicode="&#xb1;" horiz-adv-x="536" d="M50 0V34H485V0H50ZM285 370H485V337H285V121H250V337H50V370H250V586H285V370Z" />
<glyph unicode="&#xb2;" horiz-adv-x="314" d="M289 416H25V444L139 567Q174 604 197 632T232 685T245 739Q245 777 223 800T159 823Q130 823 105 813T55 781L37 807Q64 830 94 842T159 855Q216 855 248 823T281 740Q281 705 267 677T226 618T163 548L71 449H289V416Z" />
<glyph unicode="&#xb3;" horiz-adv-x="314" d="M159 851Q215 851 247 824T280 746Q280 705 260 679T209 643V641Q247 633 268 608T289 539Q289 479 251 445T142 411Q108 411 78 418T23 437V472Q52 458 81 451T142 443Q197 443 225 468T254 539Q254 583 227 603T143
624H82V655H143Q192 655 218 678T244 745Q244 780 222 800T159 820Q126 820 99 810T45 782L29 809Q56 829 87 840T159 851Z" />
<glyph unicode="&#xb4;" horiz-adv-x="247" d="M207 758Q196 742 180 723T145 682T107 642T68 606H40V613Q60 633 83 660T127 716T161 766H207V758Z" />
<glyph unicode="&#xb5;" horiz-adv-x="555" d="M471 530V0H438L432 90H430Q417 62 398 40T347 4T266 -10Q211 -10 176 10T123 64H120Q121 51 121 36T121 3T121 -31V-240H83V530H121V186Q121 106 157 66T267 25Q329 25 364 49T416 120T432 233V530H471Z" />
<glyph unicode="&#xb6;" horiz-adv-x="616" d="M494 -127H462V729H343V-127H312V338Q296 334 280 332T245 329Q192 329 155 356T100 432T81 547Q81 618 101 665T160 736T259 760H494V-127Z" />
<glyph unicode="&#xb7;" horiz-adv-x="230" d="M77 322Q77 339 84 350T108 361Q127 361 134 350T142 322Q142 305 135 295T108 284Q92 284 85 294T77 322Z" />
<glyph unicode="&#xb8;" horiz-adv-x="188" d="M177 -144Q177 -173 163 -195T123 -228T62 -240Q46 -240 34 -239T10 -234V-204Q22 -207 34 -208T63 -210Q98 -210 120 -194T143 -145Q143 -114 119 -100T48 -85L90 0H120L92 -63Q118 -64 137 -74T166 -102T177 -144Z" />
<glyph unicode="&#xb9;" horiz-adv-x="314" d="M193 844V416H157V695Q157 714 157 733T158 772T159 808Q144 798 131 789T97 768L51 740L35 767L162 844H193Z" />
<glyph unicode="&#xba;" horiz-adv-x="337" d="M306 559Q306 486 271 440T169 393Q105 393 70 439T34 559Q34 636 71 680T172 724Q217 724 246 703T291 644T306 559ZM68 559Q68 498 93 461T169 423Q222 423 247 461T272 559Q272 616 248 655T171 694Q122 694 95
658T68 559Z" />
<glyph unicode="&#xbb;" horiz-adv-x="395" d="M367 271L219 81L194 98L323 277L194 456L219 472L367 284V271ZM201 271L54 81L27 98L157 277L27 456L54 472L201 284V271Z" />
<glyph unicode="&#xbc;" horiz-adv-x="669" d="M134 0L498 714H535L172 0H134ZM141 565Q141 584 141 603T142 642T143 678Q128 668 115 659T81 638L35 610L19 637L146 714H177V286H141V565ZM557 0V124H368V149L556 431H593V155H660V124H593V0H557ZM407 155H557V305Q557
328 557 349T559 391Q551 376 543 363T524 334L407 155Z" />
<glyph unicode="&#xbd;" horiz-adv-x="707" d="M128 0L491 714H529L165 0H128ZM139 565Q139 579 139 593T139 623T139 652T140 678Q125 668 112 659T78 638L33 610L16 637L143 714H174V286H139V565ZM418 0V28L532 151Q567 188 590 216T625 269T637 323Q637 361
616 384T552 407Q523 407 498 397T448 365L430 391Q457 414 487 426T552 439Q609 439 641 407T674 324Q674 289 660 261T619 202T556 132L464 33H682V0H418Z" />
<glyph unicode="&#xbe;" horiz-adv-x="719" d="M187 0L550 714H588L224 0H187ZM141 281Q107 281 77 288T22 307V342Q52 328 81 321T142 313Q197 313 225 338T254 409Q254 453 226 473T143 494H82V525H143Q192 525 218 548T244 615Q244 650 222 670T159 690Q126
690 99 680T45 652L29 679Q56 699 87 710T159 721Q215 721 247 694T280 616Q280 575 260 549T209 513V511Q247 503 268 478T289 409Q289 349 251 315T141 281ZM608 0V124H419V149L607 431H644V155H710V124H644V0H608ZM458 155H608V305Q608 328 608 349T609 391Q601
376 593 363T575 334L458 155Z" />
<glyph unicode="&#xbf;" horiz-adv-x="417" d="M283 337Q283 290 277 259T253 204T205 156Q170 128 146 104T110 51T97 -21Q97 -90 136 -123T238 -156Q275 -156 308 -148T375 -121L389 -156Q348 -174 314 -183T237 -192Q155 -192 107 -149T59 -21Q59 28 74 62T116
124T180 180Q206 200 221 221T243 269T250 339V353H283V337ZM297 503Q297 486 290 475T265 464Q247 464 239 475T231 503Q231 520 239 530T265 541Q282 541 289 531T297 503Z" />
<glyph unicode="&#xc0;" horiz-adv-x="557" d="M515 0L422 261H137L42 0H0L264 716H302L557 0H515ZM312 578Q309 590 304 604T293 636T282 670Q275 646 267 622T250 578L150 297H409L312 578ZM221 950Q234 929 255 901T299 845T342 797V790H313Q295 806 276 825T237
866T202 906T175 942V950H221Z" />
<glyph unicode="&#xc1;" horiz-adv-x="557" d="M515 0L422 261H137L42 0H0L264 716H302L557 0H515ZM312 578Q309 590 304 604T293 636T282 670Q275 646 267 622T250 578L150 297H409L312 578ZM660 942Q649 926 633 907T598 866T560 826T521 790H493V797Q513 817
536 844T580 900T614 950H660V942Z" />
<glyph unicode="&#xc2;" horiz-adv-x="557" d="M515 0L422 261H137L42 0H0L264 716H302L557 0H515ZM312 578Q309 590 304 604T293 636T282 670Q275 646 267 622T250 578L150 297H409L312 578ZM298 948Q310 927 329 900T369 845T408 797V790H378Q352 816 326 848T279
908Q258 880 232 848T179 790H150V797Q168 818 189 845T229 899T260 948H298Z" />
<glyph unicode="&#xc3;" horiz-adv-x="557" d="M515 0L422 261H137L42 0H0L264 716H302L557 0H515ZM312 578Q309 590 304 604T293 636T282 670Q275 646 267 622T250 578L150 297H409L312 578ZM436 904Q433 853 409 826T347 799Q323 799 306 810T274 835T243 859T208
870Q188 870 172 856T151 800H121Q123 826 130 845T148 877T175 897T210 904Q233 904 250 893T283 868T314 843T348 832Q368 832 385 846T407 904H436Z" />
<glyph unicode="&#xc4;" horiz-adv-x="557" d="M515 0L422 261H137L42 0H0L264 716H302L557 0H515ZM312 578Q309 590 304 604T293 636T282 670Q275 646 267 622T250 578L150 297H409L312 578ZM163 863Q163 877 169 887T191 897Q206 897 212 887T219 863Q219 847
213 838T191 828Q176 828 170 837T163 863ZM338 863Q338 877 344 887T365 897Q381 897 387 887T393 863Q393 847 387 838T365 828Q351 828 345 837T338 863Z" />
<glyph unicode="&#xc5;" horiz-adv-x="557" d="M515 0L422 261H137L42 0H0L264 716H302L557 0H515ZM312 578Q309 590 304 604T293 636T282 670Q275 646 267 622T250 578L150 297H409L312 578ZM280 690Q240 690 212 717T183 791Q183 836 211 864T280 892Q320 892
348 863T377 791Q377 746 349 718T280 690ZM280 719Q310 719 328 740T347 791Q347 822 327 842T280 863Q250 863 231 843T212 791Q212 761 231 740T280 719Z" />
<glyph unicode="&#xc6;" horiz-adv-x="745" d="M722 0H362V260H148L43 0H-1L294 714H722V678H402V394H703V358H402V36H722V0ZM165 296H362V678H319L165 296Z" />
<glyph unicode="&#xc7;" horiz-adv-x="581" d="M380 688Q313 688 261 664T173 596T119 492T100 359Q100 259 130 184T219 68T366 26Q418 26 460 35T537 56V21Q504 7 462 -1T363 -10Q263 -10 195 36T93 165T59 360Q59 438 80 504T143 620T244 696T381 724Q428 724
470 715T552 686L536 651Q498 672 459 680T380 688ZM436 -144Q436 -173 422 -195T382 -228T321 -240Q305 -240 293 -239T269 -234V-204Q281 -207 293 -208T322 -210Q357 -210 379 -194T402 -145Q402 -114 378 -100T307 -85L349 0H379L351 -63Q377 -64 396 -74T425
-102T436 -144Z" />
<glyph unicode="&#xc8;" horiz-adv-x="519" d="M461 0H96V714H461V678H135V394H443V358H135V36H461V0ZM229 950Q242 929 263 901T307 845T350 797V790H321Q303 806 284 825T245 866T210 906T183 942V950H229Z" />
<glyph unicode="&#xc9;" horiz-adv-x="519" d="M461 0H96V714H461V678H135V394H443V358H135V36H461V0ZM668 942Q657 926 641 907T606 866T568 826T529 790H501V797Q521 817 544 844T588 900T622 950H668V942Z" />
<glyph unicode="&#xca;" horiz-adv-x="519" d="M461 0H96V714H461V678H135V394H443V358H135V36H461V0ZM306 948Q318 927 337 900T377 845T416 797V790H386Q360 816 334 848T287 908Q266 880 240 848T187 790H158V797Q176 818 197 845T237 899T268 948H306Z" />
<glyph unicode="&#xcb;" horiz-adv-x="519" d="M461 0H96V714H461V678H135V394H443V358H135V36H461V0ZM171 863Q171 877 177 887T199 897Q214 897 220 887T227 863Q227 847 221 838T199 828Q184 828 178 837T171 863ZM346 863Q346 877 352 887T373 897Q389 897
395 887T401 863Q401 847 395 838T373 828Q359 828 353 837T346 863Z" />
<glyph unicode="&#xcc;" horiz-adv-x="279" d="M227 0H52V27L120 33V680L52 688V714H227V688L160 680V33L227 27V0ZM82 950Q95 929 116 901T160 845T203 797V790H174Q156 806 137 825T98 866T63 906T36 942V950H82Z" />
<glyph unicode="&#xcd;" horiz-adv-x="279" d="M227 0H52V27L120 33V680L52 688V714H227V688L160 680V33L227 27V0ZM521 942Q510 926 494 907T459 866T421 826T382 790H354V797Q374 817 397 844T441 900T475 950H521V942Z" />
<glyph unicode="&#xce;" horiz-adv-x="279" d="M227 0H52V27L120 33V680L52 688V714H227V688L160 680V33L227 27V0ZM159 948Q171 927 190 900T230 845T269 797V790H239Q213 816 187 848T140 908Q119 880 93 848T40 790H11V797Q29 818 50 845T90 899T121 948H159Z" />
<glyph unicode="&#xcf;" horiz-adv-x="279" d="M227 0H52V27L120 33V680L52 688V714H227V688L160 680V33L227 27V0ZM24 863Q24 877 30 887T52 897Q67 897 73 887T80 863Q80 847 74 838T52 828Q37 828 31 837T24 863ZM199 863Q199 877 205 887T226 897Q242 897
248 887T254 863Q254 847 248 838T226 828Q212 828 206 837T199 863Z" />
<glyph unicode="&#xd0;" horiz-adv-x="660" d="M272 714Q381 714 453 674T563 556T601 364Q601 244 562 163T445 41T251 0H97V337H19V373H97V714H272ZM262 678H137V373H324V337H137V36H251Q406 36 482 117T558 363Q558 518 487 598T262 678Z" />
<glyph unicode="&#xd1;" horiz-adv-x="671" d="M575 0H537L134 642H132Q132 621 132 602T133 562T134 523T134 481V0H96V714H134L537 74H539Q539 91 539 110T538 151T537 192T537 231V714H575V0ZM494 904Q491 853 467 826T405 799Q381 799 364 810T332 835T301
859T266 870Q246 870 230 856T209 800H179Q181 826 188 845T206 877T233 897T268 904Q291 904 308 893T341 868T372 843T406 832Q426 832 443 846T465 904H494Z" />
<glyph unicode="&#xd2;" horiz-adv-x="715" d="M656 358Q656 277 637 210T581 93T487 17T357 -10Q283 -10 227 17T133 93T78 210T59 359Q59 467 93 549T195 678T361 725Q456 725 521 681T621 555T656 358ZM100 359Q100 261 128 186T213 69T358 26Q446 26 502 67T586
184T613 358Q613 515 549 602T361 689Q273 689 215 647T129 531T100 359ZM300 961Q313 940 334 912T378 856T421 808V801H392Q374 817 355 836T316 877T281 917T254 953V961H300Z" />
<glyph unicode="&#xd3;" horiz-adv-x="715" d="M656 358Q656 277 637 210T581 93T487 17T357 -10Q283 -10 227 17T133 93T78 210T59 359Q59 467 93 549T195 678T361 725Q456 725 521 681T621 555T656 358ZM100 359Q100 261 128 186T213 69T358 26Q446 26 502 67T586
184T613 358Q613 515 549 602T361 689Q273 689 215 647T129 531T100 359ZM739 953Q728 937 712 918T677 877T639 837T600 801H572V808Q592 828 615 855T659 911T693 961H739V953Z" />
<glyph unicode="&#xd4;" horiz-adv-x="715" d="M656 358Q656 277 637 210T581 93T487 17T357 -10Q283 -10 227 17T133 93T78 210T59 359Q59 467 93 549T195 678T361 725Q456 725 521 681T621 555T656 358ZM100 359Q100 261 128 186T213 69T358 26Q446 26 502 67T586
184T613 358Q613 515 549 602T361 689Q273 689 215 647T129 531T100 359ZM377 959Q389 938 408 911T448 856T487 808V801H457Q431 827 405 859T358 919Q337 891 311 859T258 801H229V808Q247 829 268 856T308 910T339 959H377Z" />
<glyph unicode="&#xd5;" horiz-adv-x="715" d="M656 358Q656 277 637 210T581 93T487 17T357 -10Q283 -10 227 17T133 93T78 210T59 359Q59 467 93 549T195 678T361 725Q456 725 521 681T621 555T656 358ZM100 359Q100 261 128 186T213 69T358 26Q446 26 502 67T586
184T613 358Q613 515 549 602T361 689Q273 689 215 647T129 531T100 359ZM515 915Q512 864 488 837T426 810Q402 810 385 821T353 846T322 870T287 881Q267 881 251 867T230 811H200Q202 837 209 856T227 888T254 908T289 915Q312 915 329 904T362 879T393 854T427
843Q447 843 464 857T486 915H515Z" />
<glyph unicode="&#xd6;" horiz-adv-x="715" d="M656 358Q656 277 637 210T581 93T487 17T357 -10Q283 -10 227 17T133 93T78 210T59 359Q59 467 93 549T195 678T361 725Q456 725 521 681T621 555T656 358ZM100 359Q100 261 128 186T213 69T358 26Q446 26 502 67T586
184T613 358Q613 515 549 602T361 689Q273 689 215 647T129 531T100 359ZM242 874Q242 888 248 898T270 908Q285 908 291 898T298 874Q298 858 292 849T270 839Q255 839 249 848T242 874ZM417 874Q417 888 423 898T444 908Q460 908 466 898T472 874Q472 858 466
849T444 839Q430 839 424 848T417 874Z" />
<glyph unicode="&#xd7;" horiz-adv-x="536" d="M447 568L470 545L292 353L470 161L446 138L267 329L89 138L65 161L244 353L65 544L89 568L267 377L447 568Z" />
<glyph unicode="&#xd8;" horiz-adv-x="715" d="M656 358Q656 277 637 210T581 93T487 17T357 -10Q298 -10 251 7T169 58L111 -27L82 -7L143 81Q101 131 80 202T59 359Q59 467 93 549T195 678T361 725Q416 725 461 709T542 663L596 741L623 721L568 640Q611 593
633 522T656 358ZM613 358Q613 439 596 502T545 608L191 88Q222 59 263 43T358 26Q446 26 502 67T586 184T613 358ZM100 359Q100 283 116 221T166 114L520 633Q490 660 451 674T361 689Q273 689 215 647T129 531T100 359Z" />
<glyph unicode="&#xd9;" horiz-adv-x="674" d="M586 252Q586 166 556 108T469 20T335 -10Q217 -10 153 58T88 254V714H128V255Q128 142 182 84T337 26Q403 26 449 51T521 125T547 246V714H586V252ZM279 950Q292 929 313 901T357 845T400 797V790H371Q353 806 334
825T295 866T260 906T233 942V950H279Z" />
<glyph unicode="&#xda;" horiz-adv-x="674" d="M586 252Q586 166 556 108T469 20T335 -10Q217 -10 153 58T88 254V714H128V255Q128 142 182 84T337 26Q403 26 449 51T521 125T547 246V714H586V252ZM718 942Q707 926 691 907T656 866T618 826T579 790H551V797Q571
817 594 844T638 900T672 950H718V942Z" />
<glyph unicode="&#xdb;" horiz-adv-x="674" d="M586 252Q586 166 556 108T469 20T335 -10Q217 -10 153 58T88 254V714H128V255Q128 142 182 84T337 26Q403 26 449 51T521 125T547 246V714H586V252ZM356 948Q368 927 387 900T427 845T466 797V790H436Q410 816 384
848T337 908Q316 880 290 848T237 790H208V797Q226 818 247 845T287 899T318 948H356Z" />
<glyph unicode="&#xdc;" horiz-adv-x="674" d="M586 252Q586 166 556 108T469 20T335 -10Q217 -10 153 58T88 254V714H128V255Q128 142 182 84T337 26Q403 26 449 51T521 125T547 246V714H586V252ZM221 863Q221 877 227 887T249 897Q264 897 270 887T277 863Q277
847 271 838T249 828Q234 828 228 837T221 863ZM396 863Q396 877 402 887T423 897Q439 897 445 887T451 863Q451 847 445 838T423 828Q409 828 403 837T396 863Z" />
<glyph unicode="&#xdd;" horiz-adv-x="489" d="M245 314L445 714H489L266 275V0H226V271L0 714H44L245 314ZM626 942Q615 926 599 907T564 866T526 826T487 790H459V797Q479 817 502 844T546 900T580 950H626V942Z" />
<glyph unicode="&#xde;" horiz-adv-x="547" d="M496 382Q496 312 468 265T383 193T245 169H135V0H96V714H135V584H266Q383 584 439 535T496 382ZM240 205Q307 205 355 221T429 276T455 381Q455 469 408 508T259 548H135V205H240Z" />
<glyph unicode="&#xdf;" horiz-adv-x="539" d="M432 632Q432 596 419 572T387 532T349 500T316 467T303 418Q303 394 312 377T341 343T390 306Q419 286 442 265T478 213T492 138Q492 96 474 63T420 10T331 -10Q287 -10 258 -2T203 18V57Q223 47 243 40T285 28T331
24Q392 24 422 54T453 137Q453 173 442 197T412 241T365 279Q334 301 312 320T276 362T263 417Q263 452 276 474T308 512T346 542T379 578T392 631Q392 678 360 704T271 730Q222 730 189 712T138 658T121 567V0H82V567Q82 633 104 676T169 742T271 765Q323 765
358 749T413 703T432 632Z" />
<glyph unicode="&#xe0;" horiz-adv-x="493" d="M254 539Q335 539 375 495T415 353V0H384L377 98H375Q360 68 337 43T281 4T197 -10Q149 -10 115 7T63 57T45 133Q45 212 106 252T282 299L375 305V345Q375 431 345 467T253 504Q215 504 180 495T106 464L92 498Q130
516 170 527T254 539ZM286 268Q191 263 139 231T86 133Q86 81 116 53T202 24Q288 24 331 77T375 219V272L286 268ZM189 766Q202 745 223 717T267 661T310 613V606H281Q263 622 244 641T205 682T170 722T143 758V766H189Z" />
<glyph unicode="&#xe1;" horiz-adv-x="493" d="M254 539Q335 539 375 495T415 353V0H384L377 98H375Q360 68 337 43T281 4T197 -10Q149 -10 115 7T63 57T45 133Q45 212 106 252T282 299L375 305V345Q375 431 345 467T253 504Q215 504 180 495T106 464L92 498Q130
516 170 527T254 539ZM286 268Q191 263 139 231T86 133Q86 81 116 53T202 24Q288 24 331 77T375 219V272L286 268ZM628 758Q617 742 601 723T566 682T528 642T489 606H461V613Q481 633 504 660T548 716T582 766H628V758Z" />
<glyph unicode="&#xe2;" horiz-adv-x="493" d="M254 539Q335 539 375 495T415 353V0H384L377 98H375Q360 68 337 43T281 4T197 -10Q149 -10 115 7T63 57T45 133Q45 212 106 252T282 299L375 305V345Q375 431 345 467T253 504Q215 504 180 495T106 464L92 498Q130
516 170 527T254 539ZM286 268Q191 263 139 231T86 133Q86 81 116 53T202 24Q288 24 331 77T375 219V272L286 268ZM266 764Q278 743 297 716T337 661T376 613V606H346Q320 632 294 664T247 724Q226 696 200 664T147 606H118V613Q136 634 157 661T197 715T228 764H266Z"
/>
<glyph unicode="&#xe3;" horiz-adv-x="493" d="M254 539Q335 539 375 495T415 353V0H384L377 98H375Q360 68 337 43T281 4T197 -10Q149 -10 115 7T63 57T45 133Q45 212 106 252T282 299L375 305V345Q375 431 345 467T253 504Q215 504 180 495T106 464L92 498Q130
516 170 527T254 539ZM286 268Q191 263 139 231T86 133Q86 81 116 53T202 24Q288 24 331 77T375 219V272L286 268ZM405 720Q402 669 378 642T316 615Q292 615 275 626T243 651T212 675T177 686Q157 686 141 672T120 616H90Q92 642 99 661T117 693T144 713T179 720Q202
720 219 709T252 684T283 659T317 648Q337 648 354 662T376 720H405Z" />
<glyph unicode="&#xe4;" horiz-adv-x="493" d="M254 539Q335 539 375 495T415 353V0H384L377 98H375Q360 68 337 43T281 4T197 -10Q149 -10 115 7T63 57T45 133Q45 212 106 252T282 299L375 305V345Q375 431 345 467T253 504Q215 504 180 495T106 464L92 498Q130
516 170 527T254 539ZM286 268Q191 263 139 231T86 133Q86 81 116 53T202 24Q288 24 331 77T375 219V272L286 268ZM131 679Q131 693 137 703T159 713Q174 713 180 703T187 679Q187 663 181 654T159 644Q144 644 138 653T131 679ZM306 679Q306 693 312 703T333 713Q349
713 355 703T361 679Q361 663 355 654T333 644Q319 644 313 653T306 679Z" />
<glyph unicode="&#xe5;" horiz-adv-x="493" d="M254 539Q335 539 375 495T415 353V0H384L377 98H375Q360 68 337 43T281 4T197 -10Q149 -10 115 7T63 57T45 133Q45 212 106 252T282 299L375 305V345Q375 431 345 467T253 504Q215 504 180 495T106 464L92 498Q130
516 170 527T254 539ZM286 268Q191 263 139 231T86 133Q86 81 116 53T202 24Q288 24 331 77T375 219V272L286 268ZM247 610Q207 610 179 637T150 711Q150 756 178 784T247 812Q287 812 315 783T344 711Q344 666 316 638T247 610ZM247 639Q277 639 295 660T314 711Q314
742 294 762T247 783Q217 783 198 763T179 711Q179 681 198 660T247 639Z" />
<glyph unicode="&#xe6;" horiz-adv-x="803" d="M568 540Q629 540 669 508T728 420T748 294V263H405Q406 147 452 86T580 25Q622 25 654 32T728 61V23Q692 6 657 -2T579 -10Q529 -10 491 8T426 60T386 136Q372 93 348 60T288 9T199 -10Q150 -10 115 7T63 57T45
133Q45 186 72 221T151 275T277 299L366 305V346Q366 431 336 467T248 504Q211 504 176 495T103 464L90 498Q126 517 167 528T249 539Q313 539 349 506T395 399Q417 462 460 501T568 540ZM281 268Q189 263 138 231T86 133Q86 81 116 53T202 24Q256 24 292 48T347
116T365 219V272L281 268ZM568 505Q503 505 459 452T406 297H707Q707 359 692 406T646 479T568 505Z" />
<glyph unicode="&#xe7;" horiz-adv-x="445" d="M284 -10Q207 -10 156 24T80 119T54 262Q54 346 84 408T168 505T297 540Q332 540 362 534T417 515L407 480Q380 493 352 498T296 504Q233 504 188 474T119 390T95 262Q95 195 115 141T176 56T283 25Q319 25 352 32T412
52V17Q388 6 356 -2T284 -10ZM353 -144Q353 -173 339 -195T299 -228T238 -240Q222 -240 210 -239T186 -234V-204Q198 -207 210 -208T239 -210Q274 -210 296 -194T319 -145Q319 -114 295 -100T224 -85L266 0H296L268 -63Q294 -64 313 -74T342 -102T353 -144Z" />
<glyph unicode="&#xe8;" horiz-adv-x="513" d="M271 540Q335 540 376 508T437 420T458 294V263H95Q95 148 143 87T283 25Q329 25 362 32T438 61V23Q401 6 365 -2T282 -10Q205 -10 155 24T79 119T54 260Q54 338 78 401T151 502T271 540ZM271 505Q197 505 151 452T96
297H417Q417 359 402 406T354 479T271 505ZM199 766Q212 745 233 717T277 661T320 613V606H291Q273 622 254 641T215 682T180 722T153 758V766H199Z" />
<glyph unicode="&#xe9;" horiz-adv-x="513" d="M271 540Q335 540 376 508T437 420T458 294V263H95Q95 148 143 87T283 25Q329 25 362 32T438 61V23Q401 6 365 -2T282 -10Q205 -10 155 24T79 119T54 260Q54 338 78 401T151 502T271 540ZM271 505Q197 505 151 452T96
297H417Q417 359 402 406T354 479T271 505ZM638 758Q627 742 611 723T576 682T538 642T499 606H471V613Q491 633 514 660T558 716T592 766H638V758Z" />
<glyph unicode="&#xea;" horiz-adv-x="513" d="M271 540Q335 540 376 508T437 420T458 294V263H95Q95 148 143 87T283 25Q329 25 362 32T438 61V23Q401 6 365 -2T282 -10Q205 -10 155 24T79 119T54 260Q54 338 78 401T151 502T271 540ZM271 505Q197 505 151 452T96
297H417Q417 359 402 406T354 479T271 505ZM276 764Q288 743 307 716T347 661T386 613V606H356Q330 632 304 664T257 724Q236 696 210 664T157 606H128V613Q146 634 167 661T207 715T238 764H276Z" />
<glyph unicode="&#xeb;" horiz-adv-x="513" d="M271 540Q335 540 376 508T437 420T458 294V263H95Q95 148 143 87T283 25Q329 25 362 32T438 61V23Q401 6 365 -2T282 -10Q205 -10 155 24T79 119T54 260Q54 338 78 401T151 502T271 540ZM271 505Q197 505 151 452T96
297H417Q417 359 402 406T354 479T271 505ZM141 679Q141 693 147 703T169 713Q184 713 190 703T197 679Q197 663 191 654T169 644Q154 644 148 653T141 679ZM316 679Q316 693 322 703T343 713Q359 713 365 703T371 679Q371 663 365 654T343 644Q329 644 323 653T316
679Z" />
<glyph unicode="&#xec;" horiz-adv-x="206" d="M122 0H83V530H122V0ZM45 766Q58 745 79 717T123 661T166 613V606H137Q119 622 100 641T61 682T26 722T-1 758V766H45Z" />
<glyph unicode="&#xed;" horiz-adv-x="206" d="M122 0H83V530H122V0ZM484 758Q473 742 457 723T422 682T384 642T345 606H317V613Q337 633 360 660T404 716T438 766H484V758Z" />
<glyph unicode="&#xee;" horiz-adv-x="206" d="M122 0H83V530H122V0ZM122 764Q134 743 153 716T193 661T232 613V606H202Q176 632 150 664T103 724Q82 696 56 664T3 606H-26V613Q-8 634 13 661T53 715T84 764H122Z" />
<glyph unicode="&#xef;" horiz-adv-x="206" d="M122 0H83V530H122V0ZM-13 679Q-13 693 -7 703T15 713Q30 713 36 703T43 679Q43 663 37 654T15 644Q0 644 -6 653T-13 679ZM162 679Q162 693 168 703T189 713Q205 713 211 703T217 679Q217 663 211 654T189 644Q175
644 169 653T162 679Z" />
<glyph unicode="&#xf0;" horiz-adv-x="532" d="M194 759Q228 742 256 724T306 687L410 754L428 726L332 665Q380 614 412 553T461 421T477 273Q477 192 454 128T383 27T263 -10Q197 -10 150 19T78 101T53 225Q53 300 80 354T155 437T264 467Q306 467 336 458T388
433T425 396H427Q414 465 381 531T300 646L179 569L160 596L273 668Q254 684 229 700T177 730L194 759ZM267 432Q216 432 177 408T115 338T93 224Q93 161 113 117T172 49T263 25Q348 25 392 89T437 278Q437 302 429 328T403 379T351 417T267 432Z" />
<glyph unicode="&#xf1;" horiz-adv-x="549" d="M299 540Q381 540 426 493T471 347V0H431V345Q431 428 396 466T295 505Q214 505 168 454T122 297V0H83V530H115L121 426H123Q135 457 158 482T216 524T299 540ZM432 720Q429 669 405 642T343 615Q319 615 302 626T270
651T239 675T204 686Q184 686 168 672T147 616H117Q119 642 126 661T144 693T171 713T206 720Q229 720 246 709T279 684T310 659T344 648Q364 648 381 662T403 720H432Z" />
<glyph unicode="&#xf2;" horiz-adv-x="547" d="M492 265Q492 205 479 155T438 68T369 11T272 -10Q219 -10 179 10T111 67T69 154T54 265Q54 350 80 411T157 506T277 540Q351 540 398 504T469 406T492 265ZM95 265Q95 194 114 140T173 55T272 25Q334 25 373 55T432
140T452 265Q452 333 435 387T379 473T277 505Q188 505 142 442T95 265ZM216 766Q229 745 250 717T294 661T337 613V606H308Q290 622 271 641T232 682T197 722T170 758V766H216Z" />
<glyph unicode="&#xf3;" horiz-adv-x="547" d="M492 265Q492 205 479 155T438 68T369 11T272 -10Q219 -10 179 10T111 67T69 154T54 265Q54 350 80 411T157 506T277 540Q351 540 398 504T469 406T492 265ZM95 265Q95 194 114 140T173 55T272 25Q334 25 373 55T432
140T452 265Q452 333 435 387T379 473T277 505Q188 505 142 442T95 265ZM655 758Q644 742 628 723T593 682T555 642T516 606H488V613Q508 633 531 660T575 716T609 766H655V758Z" />
<glyph unicode="&#xf4;" horiz-adv-x="547" d="M492 265Q492 205 479 155T438 68T369 11T272 -10Q219 -10 179 10T111 67T69 154T54 265Q54 350 80 411T157 506T277 540Q351 540 398 504T469 406T492 265ZM95 265Q95 194 114 140T173 55T272 25Q334 25 373 55T432
140T452 265Q452 333 435 387T379 473T277 505Q188 505 142 442T95 265ZM293 764Q305 743 324 716T364 661T403 613V606H373Q347 632 321 664T274 724Q253 696 227 664T174 606H145V613Q163 634 184 661T224 715T255 764H293Z" />
<glyph unicode="&#xf5;" horiz-adv-x="547" d="M492 265Q492 205 479 155T438 68T369 11T272 -10Q219 -10 179 10T111 67T69 154T54 265Q54 350 80 411T157 506T277 540Q351 540 398 504T469 406T492 265ZM95 265Q95 194 114 140T173 55T272 25Q334 25 373 55T432
140T452 265Q452 333 435 387T379 473T277 505Q188 505 142 442T95 265ZM432 720Q429 669 405 642T343 615Q319 615 302 626T270 651T239 675T204 686Q184 686 168 672T147 616H117Q119 642 126 661T144 693T171 713T206 720Q229 720 246 709T279 684T310 659T344
648Q364 648 381 662T403 720H432Z" />
<glyph unicode="&#xf6;" horiz-adv-x="547" d="M492 265Q492 205 479 155T438 68T369 11T272 -10Q219 -10 179 10T111 67T69 154T54 265Q54 350 80 411T157 506T277 540Q351 540 398 504T469 406T492 265ZM95 265Q95 194 114 140T173 55T272 25Q334 25 373 55T432
140T452 265Q452 333 435 387T379 473T277 505Q188 505 142 442T95 265ZM158 679Q158 693 164 703T186 713Q201 713 207 703T214 679Q214 663 208 654T186 644Q171 644 165 653T158 679ZM333 679Q333 693 339 703T360 713Q376 713 382 703T388 679Q388 663 382
654T360 644Q346 644 340 653T333 679Z" />
<glyph unicode="&#xf7;" horiz-adv-x="536" d="M50 336V370H485V336H50ZM267 139Q251 139 244 149T236 176Q236 193 243 203T267 213Q285 213 291 203T298 176Q298 160 292 150T267 139ZM267 492Q251 492 244 502T236 529Q236 546 243 556T267 566Q285 566 291
556T298 529Q298 513 292 503T267 492Z" />
<glyph unicode="&#xf8;" d="M493 265Q493 186 469 124T395 26T273 -10Q227 -10 192 5T130 48L75 -28L48 -8L107 73Q81 110 68 158T55 265Q55 392 114 466T277 540Q321 540 355 527T413 488L463 557L491 537L438 465Q466 428 479 377T493 265ZM96 265Q96 217 104
176T130 104L391 460Q371 481 343 493T277 505Q188 505 142 442T96 265ZM452 265Q452 315 443 358T414 433L153 76Q174 52 204 39T273 25Q335 25 374 55T433 140T452 265Z" />
<glyph unicode="&#xf9;" horiz-adv-x="549" d="M464 530V0H432L427 103H424Q412 73 389 47T332 6T249 -10Q192 -10 154 11T96 76T76 183V530H116V187Q116 104 151 65T252 25Q307 25 345 48T404 116T425 232V530H464ZM217 766Q230 745 251 717T295 661T338 613V606H309Q291
622 272 641T233 682T198 722T171 758V766H217Z" />
<glyph unicode="&#xfa;" horiz-adv-x="549" d="M464 530V0H432L427 103H424Q412 73 389 47T332 6T249 -10Q192 -10 154 11T96 76T76 183V530H116V187Q116 104 151 65T252 25Q307 25 345 48T404 116T425 232V530H464ZM656 758Q645 742 629 723T594 682T556 642T517
606H489V613Q509 633 532 660T576 716T610 766H656V758Z" />
<glyph unicode="&#xfb;" horiz-adv-x="549" d="M464 530V0H432L427 103H424Q412 73 389 47T332 6T249 -10Q192 -10 154 11T96 76T76 183V530H116V187Q116 104 151 65T252 25Q307 25 345 48T404 116T425 232V530H464ZM294 764Q306 743 325 716T365 661T404 613V606H374Q348
632 322 664T275 724Q254 696 228 664T175 606H146V613Q164 634 185 661T225 715T256 764H294Z" />
<glyph unicode="&#xfc;" horiz-adv-x="549" d="M464 530V0H432L427 103H424Q412 73 389 47T332 6T249 -10Q192 -10 154 11T96 76T76 183V530H116V187Q116 104 151 65T252 25Q307 25 345 48T404 116T425 232V530H464ZM159 679Q159 693 165 703T187 713Q202 713
208 703T215 679Q215 663 209 654T187 644Q172 644 166 653T159 679ZM334 679Q334 693 340 703T361 713Q377 713 383 703T389 679Q389 663 383 654T361 644Q347 644 341 653T334 679Z" />
<glyph unicode="&#xfd;" horiz-adv-x="422" d="M0 530H42L165 184Q177 153 185 128T200 83T211 47H213Q220 69 231 103T258 181L381 530H423L194 -107Q177 -151 158 -181T114 -227T54 -242Q38 -242 25 -240T-2 -233V-198Q12 -202 23 -205T50 -208Q75 -208 94 -197T129
-160T157 -96L193 4L0 530ZM592 758Q581 742 565 723T530 682T492 642T453 606H425V613Q445 633 468 660T512 716T546 766H592V758Z" />
<glyph unicode="&#xfe;" horiz-adv-x="555" d="M503 269Q503 180 478 118T406 23T293 -10Q246 -10 213 5T157 47T123 106H120Q121 87 122 66T123 25T123 -15V-234H84V760H123V527Q123 505 123 473T121 418H123Q135 450 158 478T216 523T300 540Q397 540 450 471T503
269ZM461 269Q461 389 420 447T296 505Q210 505 167 444T124 270V263Q124 142 166 84T290 25Q345 25 383 52T441 134T461 269Z" />
<glyph unicode="&#xff;" horiz-adv-x="422" d="M0 530H42L165 184Q177 153 185 128T200 83T211 47H213Q220 69 231 103T258 181L381 530H423L194 -107Q177 -151 158 -181T114 -227T54 -242Q38 -242 25 -240T-2 -233V-198Q12 -202 23 -205T50 -208Q75 -208 94 -197T129
-160T157 -96L193 4L0 530ZM95 679Q95 693 101 703T123 713Q138 713 144 703T151 679Q151 663 145 654T123 644Q108 644 102 653T95 679ZM270 679Q270 693 276 703T297 713Q313 713 319 703T325 679Q325 663 319 654T297 644Q283 644 277 653T270 679Z" />
<glyph unicode="&#x2013;" horiz-adv-x="471" d="M38 253V289H433V253H38Z" />
<glyph unicode="&#x2014;" horiz-adv-x="941" d="M38 253V289H903V253H38Z" />
<glyph unicode="&#x2018;" horiz-adv-x="130" d="M18 478Q25 518 36 559T60 640T89 714H116Q103 678 92 635T72 548T60 469H24L18 478Z" />
<glyph unicode="&#x2019;" horiz-adv-x="130" d="M112 705Q107 665 96 624T71 544T42 469H14Q24 495 33 527T49 591T62 655T71 714H107L112 705Z" />
<glyph unicode="&#x201a;" horiz-adv-x="212" d="M131 107Q126 67 115 26T90 -54T61 -129H33Q43 -103 52 -71T68 -7T81 57T90 116H126L131 107Z" />
<glyph unicode="&#x201c;" horiz-adv-x="271" d="M257 714Q244 678 233 635T213 548T201 469H164L159 478Q166 518 176 559T201 640T230 714H257ZM116 714Q103 678 92 635T72 548T60 469H24L18 478Q25 518 36 559T60 640T89 714H116Z" />
<glyph unicode="&#x201d;" horiz-adv-x="271" d="M253 705Q248 665 237 624T211 544T182 469H155Q168 505 179 548T199 635T211 714H247L253 705ZM112 705Q106 665 95 624T70 544T41 469H14Q24 495 33 527T49 591T62 655T71 714H107L112 705Z" />
<glyph unicode="&#x201e;" horiz-adv-x="363" d="M272 107Q267 67 256 26T230 -54T201 -129H174Q187 -93 198 -50T218 37T230 116H266L272 107ZM131 107Q125 67 114 26T89 -54T60 -129H33Q43 -103 52 -71T68 -7T81 57T90 116H126L131 107Z" />
<glyph unicode="&#x2022;" horiz-adv-x="353" d="M113 365Q113 390 120 407T141 433T176 443Q197 443 211 434T233 406T241 365Q241 343 234 325T212 297T176 287Q156 287 142 297T120 324T113 365Z" />
<glyph unicode="&#x2039;" horiz-adv-x="228" d="M28 282L175 472L201 455L71 276L201 97L175 81L28 269V282Z" />
<glyph unicode="&#x203a;" horiz-adv-x="228" d="M54 472L201 284V271L54 81L27 98L157 277L27 456L54 472Z" />
</font>
</defs>
</svg>
